<mxfile host="app.diagrams.net" modified="2024-05-05T12:39:28.689Z" agent="Mozilla/5.0 (X11; Linux x86_64) AppleWebKit/537.36 (KHTML, like Gecko) Chrome/124.0.0.0 Safari/537.36" etag="BV8qMfthNv5xGSE34Efg" version="24.3.1" type="google">
  <diagram name="Page-1" id="kSTMJigtTGhytU9xE_-J">
    <mxGraphModel grid="1" page="1" gridSize="10" guides="1" tooltips="1" connect="1" arrows="1" fold="1" pageScale="1" pageWidth="827" pageHeight="1169" math="0" shadow="0">
      <root>
        <mxCell id="0" />
        <mxCell id="1" parent="0" />
        <mxCell id="gCTk7gotpWlxbPK6NRCB-119" value="" style="rounded=0;whiteSpace=wrap;html=1;fillColor=none;dashed=1;dashPattern=12 12;" vertex="1" parent="1">
          <mxGeometry x="3147.61" y="1447.5" width="342.39" height="432.5" as="geometry" />
        </mxCell>
        <mxCell id="is51dW0UEI_fNz-svX4W-41" value="" style="group;fillColor=#75FF83;fillStyle=solid;fontColor=#ffffff;strokeColor=#3700CC;gradientColor=none;" connectable="0" vertex="1" parent="1">
          <mxGeometry x="2540" y="70" width="170" height="120" as="geometry" />
        </mxCell>
        <mxCell id="is51dW0UEI_fNz-svX4W-42" value="&lt;div&gt;&lt;br&gt;&lt;/div&gt;" style="rounded=0;whiteSpace=wrap;html=1;fontStyle=1" vertex="1" parent="is51dW0UEI_fNz-svX4W-41">
          <mxGeometry width="170" height="120" as="geometry" />
        </mxCell>
        <mxCell id="is51dW0UEI_fNz-svX4W-43" value="&lt;font style=&quot;font-size: 20px;&quot;&gt;SLAM Toolbox&lt;/font&gt;" style="text;html=1;align=center;verticalAlign=middle;whiteSpace=wrap;rounded=0;" vertex="1" parent="is51dW0UEI_fNz-svX4W-41">
          <mxGeometry x="55" y="45" width="60" height="30" as="geometry" />
        </mxCell>
        <mxCell id="is51dW0UEI_fNz-svX4W-1" value="" style="rounded=0;whiteSpace=wrap;html=1;" vertex="1" parent="1">
          <mxGeometry x="20" y="310" width="330" height="310" as="geometry" />
        </mxCell>
        <mxCell id="is51dW0UEI_fNz-svX4W-2" value="&lt;font style=&quot;font-size: 16px;&quot;&gt;Система принятия решений&lt;/font&gt;" style="text;html=1;align=center;verticalAlign=middle;whiteSpace=wrap;rounded=0;" vertex="1" parent="1">
          <mxGeometry x="100" y="320" width="170" height="50" as="geometry" />
        </mxCell>
        <mxCell id="is51dW0UEI_fNz-svX4W-3" value="" style="rounded=0;whiteSpace=wrap;html=1;" vertex="1" parent="1">
          <mxGeometry x="40" y="440" width="140" height="130" as="geometry" />
        </mxCell>
        <mxCell id="is51dW0UEI_fNz-svX4W-4" value="" style="rounded=0;whiteSpace=wrap;html=1;" vertex="1" parent="1">
          <mxGeometry x="190" y="440" width="140" height="130" as="geometry" />
        </mxCell>
        <mxCell id="is51dW0UEI_fNz-svX4W-5" value="Система контроля" style="text;html=1;align=center;verticalAlign=middle;whiteSpace=wrap;rounded=0;" vertex="1" parent="1">
          <mxGeometry x="50" y="460" width="120" height="90" as="geometry" />
        </mxCell>
        <mxCell id="is51dW0UEI_fNz-svX4W-6" value="Система учета динамических объектов" style="text;html=1;align=center;verticalAlign=middle;whiteSpace=wrap;rounded=0;" vertex="1" parent="1">
          <mxGeometry x="205" y="450" width="110" height="110" as="geometry" />
        </mxCell>
        <mxCell id="is51dW0UEI_fNz-svX4W-15" value="" style="group" connectable="0" vertex="1" parent="1">
          <mxGeometry x="1710" y="225" width="411.74" height="300" as="geometry" />
        </mxCell>
        <mxCell id="is51dW0UEI_fNz-svX4W-8" value="" style="rounded=0;whiteSpace=wrap;html=1;movable=1;resizable=1;rotatable=1;deletable=1;editable=1;locked=0;connectable=1;container=0;" vertex="1" parent="is51dW0UEI_fNz-svX4W-15">
          <mxGeometry y="50" width="411.74" height="250" as="geometry" />
        </mxCell>
        <mxCell id="is51dW0UEI_fNz-svX4W-12" value="&lt;span style=&quot;font-size: 20px; font-weight: normal;&quot;&gt;Mobile robot&lt;/span&gt;" style="text;html=1;align=center;verticalAlign=middle;whiteSpace=wrap;rounded=0;movable=1;resizable=1;rotatable=1;deletable=1;editable=1;locked=0;connectable=1;fontStyle=1" vertex="1" parent="is51dW0UEI_fNz-svX4W-15">
          <mxGeometry x="115.87000000000012" y="40" width="180" height="90" as="geometry" />
        </mxCell>
        <mxCell id="is51dW0UEI_fNz-svX4W-9" value="LIDAR" style="rounded=0;whiteSpace=wrap;html=1;movable=1;resizable=1;rotatable=1;deletable=1;editable=1;locked=0;connectable=1;fontStyle=1;container=0;" vertex="1" parent="is51dW0UEI_fNz-svX4W-15">
          <mxGeometry x="7.609130434782628" y="227.8947368421052" width="125.21739130434783" height="61.578947368421055" as="geometry" />
        </mxCell>
        <mxCell id="is51dW0UEI_fNz-svX4W-10" value="IMU" style="rounded=0;whiteSpace=wrap;html=1;movable=1;resizable=1;rotatable=1;deletable=1;editable=1;locked=0;connectable=1;fontStyle=1;container=0;" vertex="1" parent="is51dW0UEI_fNz-svX4W-15">
          <mxGeometry x="143.26130434782613" y="227.8947368421052" width="125.21739130434783" height="61.578947368421055" as="geometry" />
        </mxCell>
        <mxCell id="is51dW0UEI_fNz-svX4W-14" value="Bumper sensor" style="rounded=0;whiteSpace=wrap;html=1;movable=1;resizable=1;rotatable=1;deletable=1;editable=1;locked=0;connectable=1;fontStyle=1;container=0;" vertex="1" parent="is51dW0UEI_fNz-svX4W-15">
          <mxGeometry x="278.9134782608696" y="227.8947368421052" width="125.21739130434783" height="61.578947368421055" as="geometry" />
        </mxCell>
        <mxCell id="is51dW0UEI_fNz-svX4W-11" value="Controller" style="rounded=0;whiteSpace=wrap;html=1;movable=1;resizable=1;rotatable=1;deletable=1;editable=1;locked=0;connectable=1;fontStyle=1;container=0;" vertex="1" parent="is51dW0UEI_fNz-svX4W-15">
          <mxGeometry x="75.95695652173913" y="156.0526315789474" width="125.21739130434783" height="61.578947368421055" as="geometry" />
        </mxCell>
        <mxCell id="is51dW0UEI_fNz-svX4W-13" value="Robot state publisher" style="rounded=0;whiteSpace=wrap;html=1;fontStyle=1;container=0;" vertex="1" parent="is51dW0UEI_fNz-svX4W-15">
          <mxGeometry x="210.56565217391312" y="156.0526315789474" width="125.21739130434783" height="61.578947368421055" as="geometry" />
        </mxCell>
        <mxCell id="is51dW0UEI_fNz-svX4W-33" value="" style="group" connectable="0" vertex="1" parent="1">
          <mxGeometry x="2514" y="275" width="300" height="255" as="geometry" />
        </mxCell>
        <mxCell id="is51dW0UEI_fNz-svX4W-18" value="" style="rounded=0;whiteSpace=wrap;html=1;container=0;" vertex="1" parent="is51dW0UEI_fNz-svX4W-33">
          <mxGeometry width="300" height="255" as="geometry" />
        </mxCell>
        <mxCell id="is51dW0UEI_fNz-svX4W-26" value="&lt;span style=&quot;font-weight: normal;&quot;&gt;Navigation2&lt;/span&gt;" style="text;html=1;align=center;verticalAlign=middle;whiteSpace=wrap;rounded=0;fontSize=20;fontStyle=1;container=0;" vertex="1" parent="is51dW0UEI_fNz-svX4W-33">
          <mxGeometry x="104.70684039087973" y="9.997948717948702" width="90.58631921824103" height="34.871794871794876" as="geometry" />
        </mxCell>
        <mxCell id="is51dW0UEI_fNz-svX4W-30" value="Planner server" style="rounded=0;whiteSpace=wrap;html=1;movable=1;resizable=1;rotatable=1;deletable=1;editable=1;locked=0;connectable=1;fontStyle=1;container=0;" vertex="1" parent="is51dW0UEI_fNz-svX4W-33">
          <mxGeometry x="12.386956521739194" y="165.00263157894744" width="125.21739130434783" height="61.578947368421055" as="geometry" />
        </mxCell>
        <mxCell id="is51dW0UEI_fNz-svX4W-31" value="Controller server" style="rounded=0;whiteSpace=wrap;html=1;movable=1;resizable=1;rotatable=1;deletable=1;editable=1;locked=0;connectable=1;fontStyle=1;container=0;" vertex="1" parent="is51dW0UEI_fNz-svX4W-33">
          <mxGeometry x="162.3869565217392" y="165.00263157894733" width="125.21739130434783" height="61.578947368421055" as="geometry" />
        </mxCell>
        <mxCell id="is51dW0UEI_fNz-svX4W-32" value="BT Navigator" style="rounded=0;whiteSpace=wrap;html=1;movable=1;resizable=1;rotatable=1;deletable=1;editable=1;locked=0;connectable=1;fontStyle=1;container=0;" vertex="1" parent="is51dW0UEI_fNz-svX4W-33">
          <mxGeometry x="87.3869565217392" y="85.00263157894733" width="125.21739130434783" height="61.578947368421055" as="geometry" />
        </mxCell>
        <mxCell id="is51dW0UEI_fNz-svX4W-39" value="" style="group" connectable="0" vertex="1" parent="1">
          <mxGeometry x="2240" y="75" width="170" height="120" as="geometry" />
        </mxCell>
        <mxCell id="is51dW0UEI_fNz-svX4W-37" value="&lt;div&gt;&lt;br&gt;&lt;/div&gt;" style="rounded=0;whiteSpace=wrap;html=1;fontStyle=1" vertex="1" parent="is51dW0UEI_fNz-svX4W-39">
          <mxGeometry width="170" height="120" as="geometry" />
        </mxCell>
        <mxCell id="is51dW0UEI_fNz-svX4W-38" value="&lt;font style=&quot;font-size: 20px;&quot;&gt;Map server&lt;/font&gt;" style="text;html=1;align=center;verticalAlign=middle;whiteSpace=wrap;rounded=0;" vertex="1" parent="is51dW0UEI_fNz-svX4W-39">
          <mxGeometry x="55" y="45" width="60" height="30" as="geometry" />
        </mxCell>
        <mxCell id="is51dW0UEI_fNz-svX4W-40" value="" style="group" connectable="0" vertex="1" parent="1">
          <mxGeometry x="2240" y="335" width="170" height="120" as="geometry" />
        </mxCell>
        <mxCell id="is51dW0UEI_fNz-svX4W-16" value="&lt;div&gt;&lt;br&gt;&lt;/div&gt;" style="rounded=0;whiteSpace=wrap;html=1;fontStyle=1" vertex="1" parent="is51dW0UEI_fNz-svX4W-40">
          <mxGeometry width="170" height="120" as="geometry" />
        </mxCell>
        <mxCell id="is51dW0UEI_fNz-svX4W-35" value="&lt;font style=&quot;font-size: 20px;&quot;&gt;AMCL&lt;/font&gt;" style="text;html=1;align=center;verticalAlign=middle;whiteSpace=wrap;rounded=0;" vertex="1" parent="is51dW0UEI_fNz-svX4W-40">
          <mxGeometry x="55" y="45" width="60" height="30" as="geometry" />
        </mxCell>
        <mxCell id="is51dW0UEI_fNz-svX4W-44" style="edgeStyle=orthogonalEdgeStyle;rounded=0;orthogonalLoop=1;jettySize=auto;html=1;exitX=1;exitY=0.5;exitDx=0;exitDy=0;entryX=-0.005;entryY=0.547;entryDx=0;entryDy=0;entryPerimeter=0;" edge="1" parent="1" source="is51dW0UEI_fNz-svX4W-8" target="is51dW0UEI_fNz-svX4W-16">
          <mxGeometry relative="1" as="geometry" />
        </mxCell>
        <mxCell id="is51dW0UEI_fNz-svX4W-45" value="Sensor&lt;br&gt;Data" style="edgeLabel;html=1;align=center;verticalAlign=middle;resizable=0;points=[];" connectable="0" vertex="1" parent="is51dW0UEI_fNz-svX4W-44">
          <mxGeometry x="0.2201" relative="1" as="geometry">
            <mxPoint x="-13" y="-1" as="offset" />
          </mxGeometry>
        </mxCell>
        <mxCell id="is51dW0UEI_fNz-svX4W-47" style="edgeStyle=orthogonalEdgeStyle;rounded=0;orthogonalLoop=1;jettySize=auto;html=1;exitX=0.5;exitY=1;exitDx=0;exitDy=0;entryX=0.5;entryY=0;entryDx=0;entryDy=0;" edge="1" parent="1" source="is51dW0UEI_fNz-svX4W-37" target="is51dW0UEI_fNz-svX4W-16">
          <mxGeometry relative="1" as="geometry" />
        </mxCell>
        <mxCell id="is51dW0UEI_fNz-svX4W-48" value="Map" style="edgeLabel;html=1;align=center;verticalAlign=middle;resizable=0;points=[];" connectable="0" vertex="1" parent="is51dW0UEI_fNz-svX4W-47">
          <mxGeometry x="-0.0934" y="-1" relative="1" as="geometry">
            <mxPoint x="1" y="-24" as="offset" />
          </mxGeometry>
        </mxCell>
        <mxCell id="is51dW0UEI_fNz-svX4W-52" style="edgeStyle=orthogonalEdgeStyle;rounded=0;orthogonalLoop=1;jettySize=auto;html=1;exitX=0.75;exitY=1;exitDx=0;exitDy=0;entryX=-0.002;entryY=0.126;entryDx=0;entryDy=0;entryPerimeter=0;" edge="1" parent="1" source="is51dW0UEI_fNz-svX4W-37" target="is51dW0UEI_fNz-svX4W-18">
          <mxGeometry relative="1" as="geometry" />
        </mxCell>
        <mxCell id="is51dW0UEI_fNz-svX4W-53" value="Map" style="edgeLabel;html=1;align=center;verticalAlign=middle;resizable=0;points=[];" connectable="0" vertex="1" parent="is51dW0UEI_fNz-svX4W-52">
          <mxGeometry x="-0.6975" y="1" relative="1" as="geometry">
            <mxPoint as="offset" />
          </mxGeometry>
        </mxCell>
        <mxCell id="is51dW0UEI_fNz-svX4W-54" style="edgeStyle=orthogonalEdgeStyle;rounded=0;orthogonalLoop=1;jettySize=auto;html=1;exitX=1;exitY=0.5;exitDx=0;exitDy=0;entryX=-0.002;entryY=0.468;entryDx=0;entryDy=0;entryPerimeter=0;" edge="1" parent="1" source="is51dW0UEI_fNz-svX4W-16" target="is51dW0UEI_fNz-svX4W-18">
          <mxGeometry relative="1" as="geometry" />
        </mxCell>
        <mxCell id="is51dW0UEI_fNz-svX4W-55" value="Pose" style="edgeLabel;html=1;align=center;verticalAlign=middle;resizable=0;points=[];" connectable="0" vertex="1" parent="is51dW0UEI_fNz-svX4W-54">
          <mxGeometry x="-0.0437" y="-1" relative="1" as="geometry">
            <mxPoint as="offset" />
          </mxGeometry>
        </mxCell>
        <mxCell id="is51dW0UEI_fNz-svX4W-58" value="" style="rounded=0;whiteSpace=wrap;html=1;fillColor=none;dashed=1;dashPattern=12 12;" vertex="1" parent="1">
          <mxGeometry x="1922" y="645" width="920" height="430" as="geometry" />
        </mxCell>
        <mxCell id="is51dW0UEI_fNz-svX4W-59" value="&lt;font style=&quot;font-size: 20px;&quot;&gt;Supervisory system&lt;/font&gt;" style="text;html=1;align=center;verticalAlign=middle;whiteSpace=wrap;rounded=0;" vertex="1" parent="1">
          <mxGeometry x="2281.5" y="655" width="201" height="20" as="geometry" />
        </mxCell>
        <mxCell id="is51dW0UEI_fNz-svX4W-68" style="edgeStyle=orthogonalEdgeStyle;rounded=0;orthogonalLoop=1;jettySize=auto;html=1;exitX=0.5;exitY=0;exitDx=0;exitDy=0;entryX=0.5;entryY=1;entryDx=0;entryDy=0;" edge="1" parent="1" source="is51dW0UEI_fNz-svX4W-60" target="is51dW0UEI_fNz-svX4W-62">
          <mxGeometry relative="1" as="geometry" />
        </mxCell>
        <mxCell id="is51dW0UEI_fNz-svX4W-69" value="Speed&amp;nbsp;&lt;br&gt;Commands" style="edgeLabel;html=1;align=center;verticalAlign=middle;resizable=0;points=[];" connectable="0" vertex="1" parent="is51dW0UEI_fNz-svX4W-68">
          <mxGeometry x="0.1015" relative="1" as="geometry">
            <mxPoint y="3" as="offset" />
          </mxGeometry>
        </mxCell>
        <mxCell id="is51dW0UEI_fNz-svX4W-60" value="Behavior Tree" style="rounded=0;whiteSpace=wrap;html=1;movable=1;resizable=1;rotatable=1;deletable=1;editable=1;locked=0;connectable=1;fontStyle=1;container=0;" vertex="1" parent="1">
          <mxGeometry x="2319.386956521739" y="825.0026315789473" width="125.21739130434783" height="61.578947368421055" as="geometry" />
        </mxCell>
        <mxCell id="is51dW0UEI_fNz-svX4W-70" style="edgeStyle=orthogonalEdgeStyle;rounded=0;orthogonalLoop=1;jettySize=auto;html=1;entryX=0;entryY=0.5;entryDx=0;entryDy=0;" edge="1" parent="1" source="is51dW0UEI_fNz-svX4W-61" target="is51dW0UEI_fNz-svX4W-60">
          <mxGeometry relative="1" as="geometry" />
        </mxCell>
        <mxCell id="is51dW0UEI_fNz-svX4W-73" value="Sensor&lt;br&gt;Health" style="edgeLabel;html=1;align=center;verticalAlign=middle;resizable=0;points=[];" connectable="0" vertex="1" parent="is51dW0UEI_fNz-svX4W-70">
          <mxGeometry x="-0.2554" y="-2" relative="1" as="geometry">
            <mxPoint x="6" y="-2" as="offset" />
          </mxGeometry>
        </mxCell>
        <mxCell id="is51dW0UEI_fNz-svX4W-61" value="Sensor supervisory unit" style="rounded=0;whiteSpace=wrap;html=1;movable=1;resizable=1;rotatable=1;deletable=1;editable=1;locked=0;connectable=1;fontStyle=1;container=0;" vertex="1" parent="1">
          <mxGeometry x="2089.996956521739" y="825.0026315789473" width="125.21739130434783" height="61.578947368421055" as="geometry" />
        </mxCell>
        <mxCell id="is51dW0UEI_fNz-svX4W-64" style="edgeStyle=orthogonalEdgeStyle;rounded=0;orthogonalLoop=1;jettySize=auto;html=1;exitX=0;exitY=0.5;exitDx=0;exitDy=0;entryX=0.5;entryY=1;entryDx=0;entryDy=0;" edge="1" parent="1" source="is51dW0UEI_fNz-svX4W-62" target="is51dW0UEI_fNz-svX4W-8">
          <mxGeometry relative="1" as="geometry" />
        </mxCell>
        <mxCell id="is51dW0UEI_fNz-svX4W-65" value="Speed&lt;br&gt;Commands" style="edgeLabel;html=1;align=center;verticalAlign=middle;resizable=0;points=[];" connectable="0" vertex="1" parent="is51dW0UEI_fNz-svX4W-64">
          <mxGeometry x="0.8631" relative="1" as="geometry">
            <mxPoint as="offset" />
          </mxGeometry>
        </mxCell>
        <mxCell id="is51dW0UEI_fNz-svX4W-94" style="edgeStyle=orthogonalEdgeStyle;rounded=0;orthogonalLoop=1;jettySize=auto;html=1;exitX=1;exitY=0.75;exitDx=0;exitDy=0;entryX=1;entryY=0.25;entryDx=0;entryDy=0;" edge="1" parent="1" source="is51dW0UEI_fNz-svX4W-62" target="is51dW0UEI_fNz-svX4W-84">
          <mxGeometry relative="1" as="geometry">
            <Array as="points">
              <mxPoint x="2760" y="751" />
              <mxPoint x="2760" y="1000" />
            </Array>
          </mxGeometry>
        </mxCell>
        <mxCell id="is51dW0UEI_fNz-svX4W-95" value="Speed&lt;br&gt;Commands" style="edgeLabel;html=1;align=center;verticalAlign=middle;resizable=0;points=[];" connectable="0" vertex="1" parent="is51dW0UEI_fNz-svX4W-94">
          <mxGeometry x="-0.6019" y="1" relative="1" as="geometry">
            <mxPoint x="-120" y="1" as="offset" />
          </mxGeometry>
        </mxCell>
        <mxCell id="is51dW0UEI_fNz-svX4W-62" value="Control switching unit" style="rounded=0;whiteSpace=wrap;html=1;movable=1;resizable=1;rotatable=1;deletable=1;editable=1;locked=0;connectable=1;fontStyle=1;container=0;" vertex="1" parent="1">
          <mxGeometry x="2319.386956521739" y="705.0026315789473" width="125.21739130434783" height="61.578947368421055" as="geometry" />
        </mxCell>
        <mxCell id="is51dW0UEI_fNz-svX4W-66" style="edgeStyle=orthogonalEdgeStyle;rounded=0;orthogonalLoop=1;jettySize=auto;html=1;exitX=0.5;exitY=1;exitDx=0;exitDy=0;entryX=1;entryY=0.25;entryDx=0;entryDy=0;" edge="1" parent="1" source="is51dW0UEI_fNz-svX4W-18" target="is51dW0UEI_fNz-svX4W-62">
          <mxGeometry relative="1" as="geometry" />
        </mxCell>
        <mxCell id="is51dW0UEI_fNz-svX4W-67" value="Speed&lt;br&gt;Commands" style="edgeLabel;html=1;align=center;verticalAlign=middle;resizable=0;points=[];" connectable="0" vertex="1" parent="is51dW0UEI_fNz-svX4W-66">
          <mxGeometry x="-0.7816" y="1" relative="1" as="geometry">
            <mxPoint x="-1" y="-10" as="offset" />
          </mxGeometry>
        </mxCell>
        <mxCell id="is51dW0UEI_fNz-svX4W-71" style="edgeStyle=orthogonalEdgeStyle;rounded=0;orthogonalLoop=1;jettySize=auto;html=1;exitX=0.75;exitY=1;exitDx=0;exitDy=0;entryX=0;entryY=0.5;entryDx=0;entryDy=0;" edge="1" parent="1" source="is51dW0UEI_fNz-svX4W-8" target="is51dW0UEI_fNz-svX4W-61">
          <mxGeometry relative="1" as="geometry" />
        </mxCell>
        <mxCell id="is51dW0UEI_fNz-svX4W-72" value="Sensor&lt;br&gt;Data" style="edgeLabel;html=1;align=center;verticalAlign=middle;resizable=0;points=[];" connectable="0" vertex="1" parent="is51dW0UEI_fNz-svX4W-71">
          <mxGeometry x="-0.8065" y="-1" relative="1" as="geometry">
            <mxPoint as="offset" />
          </mxGeometry>
        </mxCell>
        <mxCell id="is51dW0UEI_fNz-svX4W-75" style="edgeStyle=orthogonalEdgeStyle;rounded=0;orthogonalLoop=1;jettySize=auto;html=1;exitX=0;exitY=0.5;exitDx=0;exitDy=0;entryX=1;entryY=0.5;entryDx=0;entryDy=0;" edge="1" parent="1" source="is51dW0UEI_fNz-svX4W-74" target="is51dW0UEI_fNz-svX4W-60">
          <mxGeometry relative="1" as="geometry" />
        </mxCell>
        <mxCell id="is51dW0UEI_fNz-svX4W-76" value="Navigation&lt;br&gt;Services" style="edgeLabel;html=1;align=center;verticalAlign=middle;resizable=0;points=[];" connectable="0" vertex="1" parent="is51dW0UEI_fNz-svX4W-75">
          <mxGeometry x="0.2402" y="4" relative="1" as="geometry">
            <mxPoint x="13" y="-4" as="offset" />
          </mxGeometry>
        </mxCell>
        <mxCell id="is51dW0UEI_fNz-svX4W-74" value="Navigation services provider unit" style="rounded=0;whiteSpace=wrap;html=1;movable=1;resizable=1;rotatable=1;deletable=1;editable=1;locked=0;connectable=1;fontStyle=1;container=0;" vertex="1" parent="1">
          <mxGeometry x="2549.996956521739" y="825.0026315789473" width="125.21739130434783" height="61.578947368421055" as="geometry" />
        </mxCell>
        <mxCell id="is51dW0UEI_fNz-svX4W-77" style="edgeStyle=orthogonalEdgeStyle;rounded=0;orthogonalLoop=1;jettySize=auto;html=1;exitX=0.25;exitY=1;exitDx=0;exitDy=0;entryX=1;entryY=0.5;entryDx=0;entryDy=0;" edge="1" parent="1" source="is51dW0UEI_fNz-svX4W-18" target="is51dW0UEI_fNz-svX4W-74">
          <mxGeometry relative="1" as="geometry">
            <Array as="points">
              <mxPoint x="2730" y="530" />
              <mxPoint x="2730" y="855" />
              <mxPoint x="2675" y="855" />
            </Array>
          </mxGeometry>
        </mxCell>
        <mxCell id="is51dW0UEI_fNz-svX4W-78" value="Navigation&lt;br&gt;Info" style="edgeLabel;html=1;align=center;verticalAlign=middle;resizable=0;points=[];" connectable="0" vertex="1" parent="is51dW0UEI_fNz-svX4W-77">
          <mxGeometry x="-0.7432" y="1" relative="1" as="geometry">
            <mxPoint x="71" y="36" as="offset" />
          </mxGeometry>
        </mxCell>
        <mxCell id="is51dW0UEI_fNz-svX4W-79" style="edgeStyle=orthogonalEdgeStyle;rounded=0;orthogonalLoop=1;jettySize=auto;html=1;exitX=0.5;exitY=1;exitDx=0;exitDy=0;" edge="1" parent="1" source="is51dW0UEI_fNz-svX4W-16">
          <mxGeometry relative="1" as="geometry">
            <mxPoint x="2620" y="825" as="targetPoint" />
            <Array as="points">
              <mxPoint x="2325" y="565" />
              <mxPoint x="2620" y="565" />
              <mxPoint x="2620" y="825" />
            </Array>
          </mxGeometry>
        </mxCell>
        <mxCell id="is51dW0UEI_fNz-svX4W-80" value="Pose" style="edgeLabel;html=1;align=center;verticalAlign=middle;resizable=0;points=[];" connectable="0" vertex="1" parent="is51dW0UEI_fNz-svX4W-79">
          <mxGeometry x="-0.7532" y="2" relative="1" as="geometry">
            <mxPoint x="-2" y="-53" as="offset" />
          </mxGeometry>
        </mxCell>
        <mxCell id="is51dW0UEI_fNz-svX4W-87" value="" style="edgeStyle=orthogonalEdgeStyle;rounded=0;orthogonalLoop=1;jettySize=auto;html=1;" edge="1" parent="1" source="is51dW0UEI_fNz-svX4W-84" target="is51dW0UEI_fNz-svX4W-60">
          <mxGeometry relative="1" as="geometry" />
        </mxCell>
        <mxCell id="is51dW0UEI_fNz-svX4W-88" value="Maps&lt;div&gt;Speed Commands&lt;/div&gt;&lt;div&gt;Sensor Data&lt;/div&gt;&lt;div&gt;Pose&lt;/div&gt;" style="edgeLabel;html=1;align=center;verticalAlign=middle;resizable=0;points=[];" connectable="0" vertex="1" parent="is51dW0UEI_fNz-svX4W-87">
          <mxGeometry x="-0.2977" y="-1" relative="1" as="geometry">
            <mxPoint x="-1" y="-16" as="offset" />
          </mxGeometry>
        </mxCell>
        <mxCell id="is51dW0UEI_fNz-svX4W-84" value="Data storage unit" style="rounded=0;whiteSpace=wrap;html=1;movable=1;resizable=1;rotatable=1;deletable=1;editable=1;locked=0;connectable=1;fontStyle=1;container=0;" vertex="1" parent="1">
          <mxGeometry x="2319.3869565217387" y="985.0026315789473" width="125.21739130434783" height="61.578947368421055" as="geometry" />
        </mxCell>
        <mxCell id="is51dW0UEI_fNz-svX4W-90" style="edgeStyle=orthogonalEdgeStyle;rounded=0;orthogonalLoop=1;jettySize=auto;html=1;exitX=0;exitY=0.5;exitDx=0;exitDy=0;entryX=0;entryY=0.5;entryDx=0;entryDy=0;" edge="1" parent="1" source="is51dW0UEI_fNz-svX4W-37" target="is51dW0UEI_fNz-svX4W-84">
          <mxGeometry relative="1" as="geometry">
            <Array as="points">
              <mxPoint x="1680" y="135" />
              <mxPoint x="1680" y="1016" />
            </Array>
          </mxGeometry>
        </mxCell>
        <mxCell id="is51dW0UEI_fNz-svX4W-91" value="Map" style="edgeLabel;html=1;align=center;verticalAlign=middle;resizable=0;points=[];" connectable="0" vertex="1" parent="is51dW0UEI_fNz-svX4W-90">
          <mxGeometry x="-0.966" y="1" relative="1" as="geometry">
            <mxPoint x="-25" y="-1" as="offset" />
          </mxGeometry>
        </mxCell>
        <mxCell id="is51dW0UEI_fNz-svX4W-92" style="edgeStyle=orthogonalEdgeStyle;rounded=0;orthogonalLoop=1;jettySize=auto;html=1;exitX=0.849;exitY=0.999;exitDx=0;exitDy=0;entryX=0;entryY=0.25;entryDx=0;entryDy=0;exitPerimeter=0;" edge="1" parent="1" source="is51dW0UEI_fNz-svX4W-8" target="is51dW0UEI_fNz-svX4W-84">
          <mxGeometry relative="1" as="geometry" />
        </mxCell>
        <mxCell id="is51dW0UEI_fNz-svX4W-93" value="Sensor&lt;div&gt;Data&lt;/div&gt;" style="edgeLabel;html=1;align=center;verticalAlign=middle;resizable=0;points=[];" connectable="0" vertex="1" parent="is51dW0UEI_fNz-svX4W-92">
          <mxGeometry x="-0.8993" y="1" relative="1" as="geometry">
            <mxPoint y="3" as="offset" />
          </mxGeometry>
        </mxCell>
        <mxCell id="is51dW0UEI_fNz-svX4W-96" style="edgeStyle=orthogonalEdgeStyle;rounded=0;orthogonalLoop=1;jettySize=auto;html=1;exitX=0.75;exitY=1;exitDx=0;exitDy=0;entryX=1;entryY=0.5;entryDx=0;entryDy=0;" edge="1" parent="1" source="is51dW0UEI_fNz-svX4W-16" target="is51dW0UEI_fNz-svX4W-84">
          <mxGeometry relative="1" as="geometry">
            <Array as="points">
              <mxPoint x="2368" y="545" />
              <mxPoint x="2800" y="545" />
              <mxPoint x="2800" y="1016" />
            </Array>
          </mxGeometry>
        </mxCell>
        <mxCell id="is51dW0UEI_fNz-svX4W-97" value="Pose" style="edgeLabel;html=1;align=center;verticalAlign=middle;resizable=0;points=[];" connectable="0" vertex="1" parent="is51dW0UEI_fNz-svX4W-96">
          <mxGeometry x="-0.9249" relative="1" as="geometry">
            <mxPoint x="2" y="-22" as="offset" />
          </mxGeometry>
        </mxCell>
        <mxCell id="is51dW0UEI_fNz-svX4W-98" style="edgeStyle=orthogonalEdgeStyle;rounded=0;orthogonalLoop=1;jettySize=auto;html=1;exitX=0;exitY=0.5;exitDx=0;exitDy=0;entryX=0.996;entryY=0.454;entryDx=0;entryDy=0;entryPerimeter=0;" edge="1" parent="1" source="is51dW0UEI_fNz-svX4W-42" target="is51dW0UEI_fNz-svX4W-37">
          <mxGeometry relative="1" as="geometry" />
        </mxCell>
        <mxCell id="is51dW0UEI_fNz-svX4W-99" value="Map" style="edgeLabel;html=1;align=center;verticalAlign=middle;resizable=0;points=[];" connectable="0" vertex="1" parent="is51dW0UEI_fNz-svX4W-98">
          <mxGeometry x="0.0972" y="2" relative="1" as="geometry">
            <mxPoint x="1" y="-1" as="offset" />
          </mxGeometry>
        </mxCell>
        <mxCell id="is51dW0UEI_fNz-svX4W-100" value="" style="group" connectable="0" vertex="1" parent="1">
          <mxGeometry x="130" y="1080" width="220" height="209" as="geometry" />
        </mxCell>
        <mxCell id="is51dW0UEI_fNz-svX4W-104" style="edgeStyle=orthogonalEdgeStyle;rounded=0;orthogonalLoop=1;jettySize=auto;html=1;exitX=0;exitY=0.25;exitDx=0;exitDy=0;entryX=0;entryY=0.25;entryDx=0;entryDy=0;" edge="1" parent="is51dW0UEI_fNz-svX4W-100" target="is51dW0UEI_fNz-svX4W-101">
          <mxGeometry relative="1" as="geometry">
            <mxPoint x="-110" y="66.52173913043498" as="sourcePoint" />
          </mxGeometry>
        </mxCell>
        <mxCell id="is51dW0UEI_fNz-svX4W-114" value="/odom" style="edgeLabel;html=1;align=center;verticalAlign=middle;resizable=0;points=[];" connectable="0" vertex="1" parent="is51dW0UEI_fNz-svX4W-104">
          <mxGeometry x="-0.1042" y="1" relative="1" as="geometry">
            <mxPoint as="offset" />
          </mxGeometry>
        </mxCell>
        <mxCell id="is51dW0UEI_fNz-svX4W-115" style="edgeStyle=orthogonalEdgeStyle;rounded=0;orthogonalLoop=1;jettySize=auto;html=1;" edge="1" parent="is51dW0UEI_fNz-svX4W-100" source="is51dW0UEI_fNz-svX4W-101">
          <mxGeometry relative="1" as="geometry">
            <mxPoint x="360" y="114" as="targetPoint" />
          </mxGeometry>
        </mxCell>
        <mxCell id="is51dW0UEI_fNz-svX4W-116" value="&lt;div&gt;Sensor&lt;/div&gt;Health&lt;br&gt;Services" style="edgeLabel;html=1;align=center;verticalAlign=middle;resizable=0;points=[];" connectable="0" vertex="1" parent="is51dW0UEI_fNz-svX4W-115">
          <mxGeometry x="-0.2498" y="1" relative="1" as="geometry">
            <mxPoint x="17" y="1" as="offset" />
          </mxGeometry>
        </mxCell>
        <mxCell id="is51dW0UEI_fNz-svX4W-101" value="" style="rounded=0;whiteSpace=wrap;html=1;" vertex="1" parent="is51dW0UEI_fNz-svX4W-100">
          <mxGeometry y="19" width="220" height="190" as="geometry" />
        </mxCell>
        <mxCell id="is51dW0UEI_fNz-svX4W-102" value="Sensor supervisory unit" style="text;html=1;align=center;verticalAlign=middle;whiteSpace=wrap;rounded=0;fontStyle=1" vertex="1" parent="is51dW0UEI_fNz-svX4W-100">
          <mxGeometry x="55" width="110" height="80" as="geometry" />
        </mxCell>
        <mxCell id="is51dW0UEI_fNz-svX4W-103" value="class SensorSupervisoryUnit&lt;br&gt;&lt;br&gt;node_name: sensor_supervisory_unit&lt;br&gt;sub: scan&lt;div&gt;sub: imu&lt;/div&gt;&lt;div&gt;sub: odom&lt;/div&gt;&lt;div&gt;&lt;div&gt;srv: lidar_check_service&lt;/div&gt;&lt;/div&gt;&lt;div&gt;srv: imu_check_service&lt;/div&gt;&lt;div&gt;srv: odom_check_service&lt;/div&gt;" style="text;html=1;align=left;verticalAlign=middle;whiteSpace=wrap;rounded=0;fontStyle=2;movable=1;resizable=1;rotatable=1;deletable=1;editable=1;locked=0;connectable=1;" vertex="1" parent="is51dW0UEI_fNz-svX4W-100">
          <mxGeometry x="5.63" y="60" width="214.37" height="160" as="geometry" />
        </mxCell>
        <mxCell id="is51dW0UEI_fNz-svX4W-106" style="edgeStyle=orthogonalEdgeStyle;rounded=0;orthogonalLoop=1;jettySize=auto;html=1;exitX=0;exitY=0.25;exitDx=0;exitDy=0;entryX=0;entryY=0.25;entryDx=0;entryDy=0;" edge="1" parent="1">
          <mxGeometry relative="1" as="geometry">
            <mxPoint x="130" y="1195" as="targetPoint" />
            <mxPoint x="20" y="1194.521739130435" as="sourcePoint" />
          </mxGeometry>
        </mxCell>
        <mxCell id="is51dW0UEI_fNz-svX4W-112" value="/imu" style="edgeLabel;html=1;align=center;verticalAlign=middle;resizable=0;points=[];" connectable="0" vertex="1" parent="is51dW0UEI_fNz-svX4W-106">
          <mxGeometry x="-0.0849" y="-3" relative="1" as="geometry">
            <mxPoint y="-4" as="offset" />
          </mxGeometry>
        </mxCell>
        <mxCell id="is51dW0UEI_fNz-svX4W-108" style="edgeStyle=orthogonalEdgeStyle;rounded=0;orthogonalLoop=1;jettySize=auto;html=1;exitX=0;exitY=0.25;exitDx=0;exitDy=0;entryX=0;entryY=0.25;entryDx=0;entryDy=0;" edge="1" parent="1">
          <mxGeometry relative="1" as="geometry">
            <mxPoint x="130" y="1240.48" as="targetPoint" />
            <mxPoint x="20" y="1240.001739130435" as="sourcePoint" />
          </mxGeometry>
        </mxCell>
        <mxCell id="is51dW0UEI_fNz-svX4W-113" value="/scan" style="edgeLabel;html=1;align=center;verticalAlign=middle;resizable=0;points=[];" connectable="0" vertex="1" parent="is51dW0UEI_fNz-svX4W-108">
          <mxGeometry x="-0.0219" y="-2" relative="1" as="geometry">
            <mxPoint x="-4" y="-2" as="offset" />
          </mxGeometry>
        </mxCell>
        <mxCell id="is51dW0UEI_fNz-svX4W-122" value="" style="group" connectable="0" vertex="1" parent="1">
          <mxGeometry x="90" y="1370" width="280" height="280" as="geometry" />
        </mxCell>
        <mxCell id="is51dW0UEI_fNz-svX4W-137" style="edgeStyle=orthogonalEdgeStyle;rounded=0;orthogonalLoop=1;jettySize=auto;html=1;exitX=1;exitY=0.5;exitDx=0;exitDy=0;" edge="1" parent="is51dW0UEI_fNz-svX4W-122" source="is51dW0UEI_fNz-svX4W-119">
          <mxGeometry relative="1" as="geometry">
            <mxPoint x="420" y="136.9565217391305" as="targetPoint" />
          </mxGeometry>
        </mxCell>
        <mxCell id="is51dW0UEI_fNz-svX4W-138" value="Navigation&lt;br&gt;Services" style="edgeLabel;html=1;align=center;verticalAlign=middle;resizable=0;points=[];" connectable="0" vertex="1" parent="is51dW0UEI_fNz-svX4W-137">
          <mxGeometry x="-0.2612" y="-1" relative="1" as="geometry">
            <mxPoint x="18" y="-1" as="offset" />
          </mxGeometry>
        </mxCell>
        <mxCell id="is51dW0UEI_fNz-svX4W-119" value="" style="rounded=0;whiteSpace=wrap;html=1;container=0;" vertex="1" parent="is51dW0UEI_fNz-svX4W-122">
          <mxGeometry y="4.5499999999999545" width="280" height="265.45" as="geometry" />
        </mxCell>
        <mxCell id="is51dW0UEI_fNz-svX4W-120" value="Navigation services provider unit" style="text;html=1;align=center;verticalAlign=middle;whiteSpace=wrap;rounded=0;fontStyle=1;container=0;" vertex="1" parent="is51dW0UEI_fNz-svX4W-122">
          <mxGeometry x="48.75" width="182.5" height="73.35" as="geometry" />
        </mxCell>
        <mxCell id="is51dW0UEI_fNz-svX4W-121" value="class NavigationServicesProviderUnit&lt;br&gt;&lt;br&gt;&lt;div&gt;node_name: navigation_services_provider_unit&lt;div&gt;sub: amcl_pose&lt;/div&gt;&lt;div&gt;sub: plan&lt;/div&gt;&lt;div&gt;&lt;div&gt;sub: compute_path_to_pose/_action/status&lt;/div&gt;&lt;/div&gt;&lt;div&gt;sub: bumper_states&lt;br&gt;&lt;/div&gt;&lt;div&gt;&lt;div&gt;sub: imu&lt;/div&gt;&lt;/div&gt;&lt;div&gt;srv: get_goal_distance&lt;/div&gt;&lt;div&gt;&lt;span style=&quot;background-color: initial;&quot;&gt;srv: check_path_possibility&lt;/span&gt;&lt;br&gt;&lt;/div&gt;&lt;/div&gt;&lt;div&gt;srv: check_collision&lt;/div&gt;&lt;div&gt;&lt;span style=&quot;background-color: initial;&quot;&gt;srv: check_orientation&lt;/span&gt;&lt;br&gt;&lt;/div&gt;&lt;div&gt;&lt;div&gt;cli_srv: save_collision_pose&lt;/div&gt;&lt;/div&gt;&lt;div&gt;&lt;br&gt;&lt;/div&gt;" style="text;html=1;align=left;verticalAlign=middle;whiteSpace=wrap;rounded=0;fontStyle=2;movable=1;resizable=1;rotatable=1;deletable=1;editable=1;locked=0;connectable=1;container=0;" vertex="1" parent="is51dW0UEI_fNz-svX4W-122">
          <mxGeometry x="5" y="80" width="270" height="200" as="geometry" />
        </mxCell>
        <mxCell id="is51dW0UEI_fNz-svX4W-127" style="edgeStyle=orthogonalEdgeStyle;rounded=0;orthogonalLoop=1;jettySize=auto;html=1;entryX=0;entryY=0.25;entryDx=0;entryDy=0;" edge="1" parent="1">
          <mxGeometry relative="1" as="geometry">
            <mxPoint x="90" y="1440.48" as="targetPoint" />
            <mxPoint x="-150" y="1440" as="sourcePoint" />
          </mxGeometry>
        </mxCell>
        <mxCell id="is51dW0UEI_fNz-svX4W-128" value="/amcl_pose" style="edgeLabel;html=1;align=center;verticalAlign=middle;resizable=0;points=[];" connectable="0" vertex="1" parent="is51dW0UEI_fNz-svX4W-127">
          <mxGeometry x="-0.1042" y="1" relative="1" as="geometry">
            <mxPoint as="offset" />
          </mxGeometry>
        </mxCell>
        <mxCell id="is51dW0UEI_fNz-svX4W-129" style="edgeStyle=orthogonalEdgeStyle;rounded=0;orthogonalLoop=1;jettySize=auto;html=1;entryX=0;entryY=0.25;entryDx=0;entryDy=0;" edge="1" parent="1">
          <mxGeometry relative="1" as="geometry">
            <mxPoint x="90" y="1480.48" as="targetPoint" />
            <mxPoint x="-150" y="1480" as="sourcePoint" />
          </mxGeometry>
        </mxCell>
        <mxCell id="is51dW0UEI_fNz-svX4W-130" value="/plan" style="edgeLabel;html=1;align=center;verticalAlign=middle;resizable=0;points=[];" connectable="0" vertex="1" parent="is51dW0UEI_fNz-svX4W-129">
          <mxGeometry x="-0.1042" y="1" relative="1" as="geometry">
            <mxPoint as="offset" />
          </mxGeometry>
        </mxCell>
        <mxCell id="is51dW0UEI_fNz-svX4W-131" style="edgeStyle=orthogonalEdgeStyle;rounded=0;orthogonalLoop=1;jettySize=auto;html=1;entryX=0;entryY=0.25;entryDx=0;entryDy=0;" edge="1" parent="1">
          <mxGeometry relative="1" as="geometry">
            <mxPoint x="90" y="1520.48" as="targetPoint" />
            <mxPoint x="-150" y="1520" as="sourcePoint" />
          </mxGeometry>
        </mxCell>
        <mxCell id="is51dW0UEI_fNz-svX4W-132" value="/compute_path_to_pose/_action/status" style="edgeLabel;html=1;align=center;verticalAlign=middle;resizable=0;points=[];" connectable="0" vertex="1" parent="is51dW0UEI_fNz-svX4W-131">
          <mxGeometry x="-0.1042" y="1" relative="1" as="geometry">
            <mxPoint x="12" as="offset" />
          </mxGeometry>
        </mxCell>
        <mxCell id="is51dW0UEI_fNz-svX4W-133" style="edgeStyle=orthogonalEdgeStyle;rounded=0;orthogonalLoop=1;jettySize=auto;html=1;entryX=0;entryY=0.25;entryDx=0;entryDy=0;" edge="1" parent="1">
          <mxGeometry relative="1" as="geometry">
            <mxPoint x="90" y="1560.48" as="targetPoint" />
            <mxPoint x="-150" y="1560" as="sourcePoint" />
          </mxGeometry>
        </mxCell>
        <mxCell id="is51dW0UEI_fNz-svX4W-134" value="/bumper_states" style="edgeLabel;html=1;align=center;verticalAlign=middle;resizable=0;points=[];" connectable="0" vertex="1" parent="is51dW0UEI_fNz-svX4W-133">
          <mxGeometry x="-0.1042" y="1" relative="1" as="geometry">
            <mxPoint as="offset" />
          </mxGeometry>
        </mxCell>
        <mxCell id="is51dW0UEI_fNz-svX4W-135" style="edgeStyle=orthogonalEdgeStyle;rounded=0;orthogonalLoop=1;jettySize=auto;html=1;entryX=0;entryY=0.25;entryDx=0;entryDy=0;" edge="1" parent="1">
          <mxGeometry relative="1" as="geometry">
            <mxPoint x="90" y="1600.48" as="targetPoint" />
            <mxPoint x="-150" y="1600" as="sourcePoint" />
          </mxGeometry>
        </mxCell>
        <mxCell id="is51dW0UEI_fNz-svX4W-136" value="/imu" style="edgeLabel;html=1;align=center;verticalAlign=middle;resizable=0;points=[];" connectable="0" vertex="1" parent="is51dW0UEI_fNz-svX4W-135">
          <mxGeometry x="-0.1042" y="1" relative="1" as="geometry">
            <mxPoint as="offset" />
          </mxGeometry>
        </mxCell>
        <mxCell id="is51dW0UEI_fNz-svX4W-142" style="edgeStyle=orthogonalEdgeStyle;rounded=0;orthogonalLoop=1;jettySize=auto;html=1;entryX=0;entryY=0.5;entryDx=0;entryDy=0;" edge="1" parent="1">
          <mxGeometry relative="1" as="geometry">
            <mxPoint x="85" y="2040" as="targetPoint" />
            <mxPoint x="-40" y="2040" as="sourcePoint" />
          </mxGeometry>
        </mxCell>
        <mxCell id="is51dW0UEI_fNz-svX4W-147" value="/map" style="edgeLabel;html=1;align=center;verticalAlign=middle;resizable=0;points=[];" connectable="0" vertex="1" parent="is51dW0UEI_fNz-svX4W-142">
          <mxGeometry x="0.0143" y="-2" relative="1" as="geometry">
            <mxPoint x="-4" y="-2" as="offset" />
          </mxGeometry>
        </mxCell>
        <mxCell id="is51dW0UEI_fNz-svX4W-149" style="edgeStyle=orthogonalEdgeStyle;rounded=0;orthogonalLoop=1;jettySize=auto;html=1;" edge="1" parent="1" source="is51dW0UEI_fNz-svX4W-139">
          <mxGeometry relative="1" as="geometry">
            <mxPoint x="510" y="1925" as="targetPoint" />
            <Array as="points">
              <mxPoint x="510" y="1925" />
            </Array>
          </mxGeometry>
        </mxCell>
        <mxCell id="is51dW0UEI_fNz-svX4W-150" value="Data&lt;div&gt;Retrieval&lt;br&gt;Services&lt;/div&gt;" style="edgeLabel;html=1;align=center;verticalAlign=middle;resizable=0;points=[];" connectable="0" vertex="1" parent="is51dW0UEI_fNz-svX4W-149">
          <mxGeometry x="-0.1428" y="-1" relative="1" as="geometry">
            <mxPoint x="16" y="-1" as="offset" />
          </mxGeometry>
        </mxCell>
        <mxCell id="is51dW0UEI_fNz-svX4W-139" value="" style="rounded=0;whiteSpace=wrap;html=1;" vertex="1" parent="1">
          <mxGeometry x="85" y="1730" width="275" height="390" as="geometry" />
        </mxCell>
        <mxCell id="is51dW0UEI_fNz-svX4W-140" value="&lt;i&gt;class DataStorageUnit&lt;/i&gt;&lt;div&gt;&lt;br&gt;&lt;/div&gt;&lt;div&gt;&lt;i&gt;node_name: data_storage_unit&lt;/i&gt;&lt;/div&gt;&lt;div&gt;&lt;i style=&quot;background-color: initial;&quot;&gt;sub: cmd_vel&lt;/i&gt;&lt;/div&gt;&lt;div&gt;&lt;i style=&quot;background-color: initial;&quot;&gt;sub: imu&lt;/i&gt;&lt;/div&gt;&lt;div&gt;&lt;i style=&quot;background-color: initial;&quot;&gt;sub: scan&lt;/i&gt;&lt;/div&gt;&lt;div&gt;&lt;i style=&quot;background-color: initial;&quot;&gt;sub odom&lt;/i&gt;&lt;/div&gt;&lt;div&gt;&lt;i style=&quot;background-color: initial;&quot;&gt;sub: goal_pose&lt;/i&gt;&lt;br&gt;&lt;/div&gt;&lt;div&gt;&lt;i style=&quot;background-color: initial;&quot;&gt;sub: map&lt;/i&gt;&lt;i style=&quot;background-color: initial;&quot;&gt;&lt;br&gt;&lt;/i&gt;&lt;/div&gt;&lt;div&gt;&lt;i style=&quot;background-color: initial;&quot;&gt;sub: amcl_pose&lt;/i&gt;&lt;i style=&quot;background-color: initial;&quot;&gt;&lt;br&gt;&lt;/i&gt;&lt;/div&gt;&lt;div&gt;&lt;i&gt;pub: goal_pose&lt;/i&gt;&lt;/div&gt;&lt;div&gt;&lt;i&gt;pub: map_updated&lt;/i&gt;&lt;i&gt;&lt;br&gt;&lt;/i&gt;&lt;/div&gt;&lt;div&gt;&lt;i&gt;srv: get_cmd_vel&lt;/i&gt;&lt;/div&gt;&lt;div&gt;&lt;i&gt;srv: get_imu&lt;/i&gt;&lt;/div&gt;&lt;div&gt;&lt;i&gt;srv: get_scan&lt;/i&gt;&lt;/div&gt;&lt;div&gt;&lt;i&gt;srv: get_odom&lt;/i&gt;&lt;/div&gt;&lt;div&gt;&lt;i&gt;srv: get_last_goal&lt;/i&gt;&lt;/div&gt;&lt;div&gt;&lt;i&gt;srv: set_last_goal&lt;/i&gt;&lt;/div&gt;&lt;div&gt;&lt;i&gt;srv: get_last_pose&lt;/i&gt;&lt;/div&gt;&lt;div&gt;&lt;i&gt;srv: get_last_map&lt;/i&gt;&lt;/div&gt;&lt;div&gt;&lt;i&gt;srv: send_map&lt;/i&gt;&lt;/div&gt;&lt;div&gt;&lt;i style=&quot;background-color: initial;&quot;&gt;srv: save_collision_pose&lt;/i&gt;&lt;br&gt;&lt;/div&gt;&lt;div&gt;&lt;i&gt;srv: get_collision_pose&lt;/i&gt;&lt;/div&gt;" style="text;html=1;align=left;verticalAlign=top;whiteSpace=wrap;rounded=0;" vertex="1" parent="1">
          <mxGeometry x="90" y="1776" width="230" height="230" as="geometry" />
        </mxCell>
        <mxCell id="is51dW0UEI_fNz-svX4W-141" value="Data storage unit" style="text;html=1;align=center;verticalAlign=middle;whiteSpace=wrap;rounded=0;fontStyle=1;container=0;" vertex="1" parent="1">
          <mxGeometry x="153.75" y="1730" width="152.5" height="46" as="geometry" />
        </mxCell>
        <mxCell id="is51dW0UEI_fNz-svX4W-144" style="edgeStyle=orthogonalEdgeStyle;rounded=0;orthogonalLoop=1;jettySize=auto;html=1;entryX=0;entryY=0.5;entryDx=0;entryDy=0;" edge="1" parent="1">
          <mxGeometry relative="1" as="geometry">
            <mxPoint x="85" y="2080" as="targetPoint" />
            <mxPoint x="-40" y="2080" as="sourcePoint" />
          </mxGeometry>
        </mxCell>
        <mxCell id="is51dW0UEI_fNz-svX4W-148" value="/amcl_pose" style="edgeLabel;html=1;align=center;verticalAlign=middle;resizable=0;points=[];" connectable="0" vertex="1" parent="is51dW0UEI_fNz-svX4W-144">
          <mxGeometry x="-0.0417" relative="1" as="geometry">
            <mxPoint as="offset" />
          </mxGeometry>
        </mxCell>
        <mxCell id="is51dW0UEI_fNz-svX4W-145" style="edgeStyle=orthogonalEdgeStyle;rounded=0;orthogonalLoop=1;jettySize=auto;html=1;entryX=0;entryY=0.5;entryDx=0;entryDy=0;" edge="1" parent="1">
          <mxGeometry relative="1" as="geometry">
            <mxPoint x="85" y="2000" as="targetPoint" />
            <mxPoint x="-40" y="2000" as="sourcePoint" />
          </mxGeometry>
        </mxCell>
        <mxCell id="is51dW0UEI_fNz-svX4W-146" value="/goal_pose" style="edgeLabel;html=1;align=center;verticalAlign=middle;resizable=0;points=[];" connectable="0" vertex="1" parent="is51dW0UEI_fNz-svX4W-145">
          <mxGeometry x="-0.0417" y="1" relative="1" as="geometry">
            <mxPoint as="offset" />
          </mxGeometry>
        </mxCell>
        <mxCell id="is51dW0UEI_fNz-svX4W-151" style="edgeStyle=orthogonalEdgeStyle;rounded=0;orthogonalLoop=1;jettySize=auto;html=1;entryX=0;entryY=0.25;entryDx=0;entryDy=0;" edge="1" parent="1">
          <mxGeometry relative="1" as="geometry">
            <mxPoint x="85" y="1960.48" as="targetPoint" />
            <mxPoint x="-40" y="1960" as="sourcePoint" />
          </mxGeometry>
        </mxCell>
        <mxCell id="is51dW0UEI_fNz-svX4W-152" value="/odom" style="edgeLabel;html=1;align=center;verticalAlign=middle;resizable=0;points=[];" connectable="0" vertex="1" parent="is51dW0UEI_fNz-svX4W-151">
          <mxGeometry x="-0.1042" y="1" relative="1" as="geometry">
            <mxPoint as="offset" />
          </mxGeometry>
        </mxCell>
        <mxCell id="is51dW0UEI_fNz-svX4W-153" style="edgeStyle=orthogonalEdgeStyle;rounded=0;orthogonalLoop=1;jettySize=auto;html=1;entryX=0;entryY=0.25;entryDx=0;entryDy=0;" edge="1" parent="1">
          <mxGeometry relative="1" as="geometry">
            <mxPoint x="85" y="1880.48" as="targetPoint" />
            <mxPoint x="-40" y="1880" as="sourcePoint" />
          </mxGeometry>
        </mxCell>
        <mxCell id="is51dW0UEI_fNz-svX4W-154" value="/imu" style="edgeLabel;html=1;align=center;verticalAlign=middle;resizable=0;points=[];" connectable="0" vertex="1" parent="is51dW0UEI_fNz-svX4W-153">
          <mxGeometry x="-0.0849" y="-3" relative="1" as="geometry">
            <mxPoint y="-4" as="offset" />
          </mxGeometry>
        </mxCell>
        <mxCell id="is51dW0UEI_fNz-svX4W-155" style="edgeStyle=orthogonalEdgeStyle;rounded=0;orthogonalLoop=1;jettySize=auto;html=1;entryX=0;entryY=0.25;entryDx=0;entryDy=0;" edge="1" parent="1">
          <mxGeometry relative="1" as="geometry">
            <mxPoint x="85" y="1920.48" as="targetPoint" />
            <mxPoint x="-40" y="1920" as="sourcePoint" />
          </mxGeometry>
        </mxCell>
        <mxCell id="is51dW0UEI_fNz-svX4W-156" value="/scan" style="edgeLabel;html=1;align=center;verticalAlign=middle;resizable=0;points=[];" connectable="0" vertex="1" parent="is51dW0UEI_fNz-svX4W-155">
          <mxGeometry x="-0.0219" y="-2" relative="1" as="geometry">
            <mxPoint x="-4" y="-2" as="offset" />
          </mxGeometry>
        </mxCell>
        <mxCell id="is51dW0UEI_fNz-svX4W-157" style="edgeStyle=orthogonalEdgeStyle;rounded=0;orthogonalLoop=1;jettySize=auto;html=1;entryX=0;entryY=0.25;entryDx=0;entryDy=0;" edge="1" parent="1">
          <mxGeometry relative="1" as="geometry">
            <mxPoint x="85" y="1840.48" as="targetPoint" />
            <mxPoint x="-40" y="1840" as="sourcePoint" />
          </mxGeometry>
        </mxCell>
        <mxCell id="is51dW0UEI_fNz-svX4W-158" value="/cmd_vel" style="edgeLabel;html=1;align=center;verticalAlign=middle;resizable=0;points=[];" connectable="0" vertex="1" parent="is51dW0UEI_fNz-svX4W-157">
          <mxGeometry x="-0.0849" y="-3" relative="1" as="geometry">
            <mxPoint y="-4" as="offset" />
          </mxGeometry>
        </mxCell>
        <mxCell id="is51dW0UEI_fNz-svX4W-159" value="" style="group" connectable="0" vertex="1" parent="1">
          <mxGeometry x="95" y="2220" width="220" height="209" as="geometry" />
        </mxCell>
        <mxCell id="is51dW0UEI_fNz-svX4W-165" style="edgeStyle=orthogonalEdgeStyle;rounded=0;orthogonalLoop=1;jettySize=auto;html=1;exitX=1.014;exitY=0.681;exitDx=0;exitDy=0;exitPerimeter=0;" edge="1" parent="is51dW0UEI_fNz-svX4W-159" source="is51dW0UEI_fNz-svX4W-160">
          <mxGeometry relative="1" as="geometry">
            <mxPoint x="385" y="148" as="targetPoint" />
          </mxGeometry>
        </mxCell>
        <mxCell id="is51dW0UEI_fNz-svX4W-167" value="Speed&lt;br&gt;Commands&lt;br&gt;Services" style="edgeLabel;html=1;align=center;verticalAlign=middle;resizable=0;points=[];" connectable="0" vertex="1" parent="is51dW0UEI_fNz-svX4W-165">
          <mxGeometry x="-0.109" relative="1" as="geometry">
            <mxPoint x="10" as="offset" />
          </mxGeometry>
        </mxCell>
        <mxCell id="is51dW0UEI_fNz-svX4W-168" style="edgeStyle=orthogonalEdgeStyle;rounded=0;orthogonalLoop=1;jettySize=auto;html=1;exitX=0;exitY=0.25;exitDx=0;exitDy=0;entryX=0;entryY=0.25;entryDx=0;entryDy=0;" edge="1" parent="is51dW0UEI_fNz-svX4W-159" target="is51dW0UEI_fNz-svX4W-160">
          <mxGeometry relative="1" as="geometry">
            <mxPoint x="-95.00000000000023" y="66.5714285714289" as="sourcePoint" />
          </mxGeometry>
        </mxCell>
        <mxCell id="is51dW0UEI_fNz-svX4W-170" value="/cmd_vel_bt" style="edgeLabel;html=1;align=center;verticalAlign=middle;resizable=0;points=[];" connectable="0" vertex="1" parent="is51dW0UEI_fNz-svX4W-168">
          <mxGeometry x="-0.0942" relative="1" as="geometry">
            <mxPoint as="offset" />
          </mxGeometry>
        </mxCell>
        <mxCell id="is51dW0UEI_fNz-svX4W-169" style="edgeStyle=orthogonalEdgeStyle;rounded=0;orthogonalLoop=1;jettySize=auto;html=1;exitX=0;exitY=0.75;exitDx=0;exitDy=0;entryX=0;entryY=0.75;entryDx=0;entryDy=0;" edge="1" parent="is51dW0UEI_fNz-svX4W-159" target="is51dW0UEI_fNz-svX4W-160">
          <mxGeometry relative="1" as="geometry">
            <mxPoint x="-95.00000000000023" y="161.5714285714289" as="sourcePoint" />
          </mxGeometry>
        </mxCell>
        <mxCell id="is51dW0UEI_fNz-svX4W-171" value="/cmd_vel_nav" style="edgeLabel;html=1;align=center;verticalAlign=middle;resizable=0;points=[];" connectable="0" vertex="1" parent="is51dW0UEI_fNz-svX4W-169">
          <mxGeometry x="-0.1241" relative="1" as="geometry">
            <mxPoint x="-2" as="offset" />
          </mxGeometry>
        </mxCell>
        <mxCell id="is51dW0UEI_fNz-svX4W-160" value="" style="rounded=0;whiteSpace=wrap;html=1;" vertex="1" parent="is51dW0UEI_fNz-svX4W-159">
          <mxGeometry y="19" width="220" height="190" as="geometry" />
        </mxCell>
        <mxCell id="is51dW0UEI_fNz-svX4W-161" value="Control switching unit" style="text;html=1;align=center;verticalAlign=middle;whiteSpace=wrap;rounded=0;fontStyle=1" vertex="1" parent="is51dW0UEI_fNz-svX4W-159">
          <mxGeometry x="55" width="110" height="80" as="geometry" />
        </mxCell>
        <mxCell id="is51dW0UEI_fNz-svX4W-162" value="class ControlSwitchingUnit&lt;br&gt;&lt;br&gt;node_name: control_switching_unit&lt;br&gt;sub: cmd_vel_nav&lt;br&gt;sub: cmd_vel_bt&lt;br&gt;pub: cmd_vel&lt;br&gt;srv: speed_change_service&lt;div&gt;srv: full_stop_service&lt;/div&gt;" style="text;html=1;align=left;verticalAlign=middle;whiteSpace=wrap;rounded=0;fontStyle=2;movable=1;resizable=1;rotatable=1;deletable=1;editable=1;locked=0;connectable=1;" vertex="1" parent="is51dW0UEI_fNz-svX4W-159">
          <mxGeometry x="11.25" y="70" width="197.5" height="130" as="geometry" />
        </mxCell>
        <mxCell id="is51dW0UEI_fNz-svX4W-163" style="edgeStyle=orthogonalEdgeStyle;rounded=0;orthogonalLoop=1;jettySize=auto;html=1;" edge="1" parent="1">
          <mxGeometry relative="1" as="geometry">
            <mxPoint x="480" y="2310" as="targetPoint" />
            <mxPoint x="315" y="2310" as="sourcePoint" />
          </mxGeometry>
        </mxCell>
        <mxCell id="is51dW0UEI_fNz-svX4W-164" value="/cmd_vel" style="edgeLabel;html=1;align=center;verticalAlign=middle;resizable=0;points=[];" connectable="0" vertex="1" parent="is51dW0UEI_fNz-svX4W-163">
          <mxGeometry x="-0.2315" relative="1" as="geometry">
            <mxPoint x="18" as="offset" />
          </mxGeometry>
        </mxCell>
        <mxCell id="is51dW0UEI_fNz-svX4W-203" value="" style="group" connectable="0" vertex="1" parent="1">
          <mxGeometry x="760" y="294" width="590" height="290" as="geometry" />
        </mxCell>
        <mxCell id="is51dW0UEI_fNz-svX4W-173" value="Sequence" style="whiteSpace=wrap;html=1;rounded=0;shadow=1;labelBackgroundColor=none;strokeWidth=2;fontFamily=Verdana;fontSize=12;align=center;strokeColor=default;allowArrows=1;container=0;" vertex="1" parent="is51dW0UEI_fNz-svX4W-203">
          <mxGeometry x="250" y="80" width="80" height="40" as="geometry" />
        </mxCell>
        <mxCell id="is51dW0UEI_fNz-svX4W-174" value="" style="rounded=0;html=1;labelBackgroundColor=none;startArrow=none;startFill=0;startSize=5;endArrow=none;endFill=0;endSize=5;jettySize=auto;orthogonalLoop=1;strokeWidth=1;fontFamily=Verdana;fontSize=12;exitX=0.5;exitY=1;exitDx=0;exitDy=0;entryX=0.5;entryY=0;entryDx=0;entryDy=0;" edge="1" parent="is51dW0UEI_fNz-svX4W-203" source="is51dW0UEI_fNz-svX4W-173" target="is51dW0UEI_fNz-svX4W-195">
          <mxGeometry x="-0.2168" y="-14" relative="1" as="geometry">
            <mxPoint as="offset" />
            <mxPoint x="-1619" y="840" as="sourcePoint" />
            <mxPoint x="10" y="302.9999999999998" as="targetPoint" />
          </mxGeometry>
        </mxCell>
        <mxCell id="is51dW0UEI_fNz-svX4W-179" value="" style="rounded=0;html=1;labelBackgroundColor=none;startArrow=none;startFill=0;startSize=5;endArrow=none;endFill=0;endSize=5;jettySize=auto;orthogonalLoop=1;strokeWidth=1;fontFamily=Verdana;fontSize=12;exitX=0.5;exitY=0;exitDx=0;exitDy=0;entryX=0.5;entryY=1;entryDx=0;entryDy=0;" edge="1" parent="is51dW0UEI_fNz-svX4W-203" source="is51dW0UEI_fNz-svX4W-196" target="is51dW0UEI_fNz-svX4W-173">
          <mxGeometry x="-0.2168" y="-14" relative="1" as="geometry">
            <mxPoint as="offset" />
            <mxPoint x="160.00000000000045" y="302.9999999999998" as="sourcePoint" />
            <mxPoint x="-945" y="670" as="targetPoint" />
          </mxGeometry>
        </mxCell>
        <mxCell id="is51dW0UEI_fNz-svX4W-180" value="" style="rounded=0;html=1;labelBackgroundColor=none;startArrow=none;startFill=0;startSize=5;endArrow=none;endFill=0;endSize=5;jettySize=auto;orthogonalLoop=1;strokeWidth=1;fontFamily=Verdana;fontSize=12;entryX=0.5;entryY=0;entryDx=0;entryDy=0;exitX=0.5;exitY=1;exitDx=0;exitDy=0;" edge="1" parent="is51dW0UEI_fNz-svX4W-203" source="is51dW0UEI_fNz-svX4W-173" target="is51dW0UEI_fNz-svX4W-194">
          <mxGeometry x="-0.2168" y="-14" relative="1" as="geometry">
            <mxPoint as="offset" />
            <mxPoint x="-615" y="390" as="sourcePoint" />
            <mxPoint x="400.00000000000045" y="300" as="targetPoint" />
          </mxGeometry>
        </mxCell>
        <mxCell id="is51dW0UEI_fNz-svX4W-184" value="" style="rounded=0;html=1;labelBackgroundColor=none;startArrow=none;startFill=0;startSize=5;endArrow=none;endFill=0;endSize=5;jettySize=auto;orthogonalLoop=1;strokeWidth=1;fontFamily=Verdana;fontSize=12;exitX=0.5;exitY=1;exitDx=0;exitDy=0;entryX=0.5;entryY=0;entryDx=0;entryDy=0;" edge="1" parent="is51dW0UEI_fNz-svX4W-203" source="is51dW0UEI_fNz-svX4W-173" target="is51dW0UEI_fNz-svX4W-197">
          <mxGeometry x="-0.2168" y="-14" relative="1" as="geometry">
            <mxPoint as="offset" />
            <mxPoint x="-140" y="331.63" as="sourcePoint" />
            <mxPoint x="630.0000000000005" y="374.5" as="targetPoint" />
          </mxGeometry>
        </mxCell>
        <mxCell id="is51dW0UEI_fNz-svX4W-188" value="" style="rounded=0;html=1;labelBackgroundColor=none;startArrow=none;startFill=0;startSize=5;endArrow=none;endFill=0;endSize=5;jettySize=auto;orthogonalLoop=1;strokeWidth=1;fontFamily=Verdana;fontSize=12;entryX=0.5;entryY=0;entryDx=0;entryDy=0;exitX=0.5;exitY=1;exitDx=0;exitDy=0;" edge="1" parent="is51dW0UEI_fNz-svX4W-203" source="is51dW0UEI_fNz-svX4W-173" target="is51dW0UEI_fNz-svX4W-198">
          <mxGeometry x="-0.2168" y="-14" relative="1" as="geometry">
            <mxPoint as="offset" />
            <mxPoint x="160" y="100" as="sourcePoint" />
            <mxPoint x="905" y="383.25" as="targetPoint" />
          </mxGeometry>
        </mxCell>
        <mxCell id="is51dW0UEI_fNz-svX4W-191" value="" style="rounded=0;html=1;labelBackgroundColor=none;startArrow=none;startFill=0;startSize=5;endArrow=none;endFill=0;endSize=5;jettySize=auto;orthogonalLoop=1;strokeWidth=1;fontFamily=Verdana;fontSize=12;exitX=0.5;exitY=1;exitDx=0;exitDy=0;entryX=0.5;entryY=0;entryDx=0;entryDy=0;" edge="1" parent="is51dW0UEI_fNz-svX4W-203" source="is51dW0UEI_fNz-svX4W-173" target="is51dW0UEI_fNz-svX4W-199">
          <mxGeometry x="-0.2168" y="-14" relative="1" as="geometry">
            <mxPoint as="offset" />
            <mxPoint x="780" y="-100.36999999999989" as="sourcePoint" />
            <mxPoint x="1100" y="374.5" as="targetPoint" />
          </mxGeometry>
        </mxCell>
        <mxCell id="is51dW0UEI_fNz-svX4W-194" value="&lt;font style=&quot;font-size: 12px;&quot;&gt;Odometry subtree&lt;/font&gt;" style="whiteSpace=wrap;html=1;rounded=0;shadow=1;labelBackgroundColor=none;strokeWidth=2;fontFamily=Verdana;fontSize=12;align=center;strokeColor=default;allowArrows=1;container=0;" vertex="1" parent="is51dW0UEI_fNz-svX4W-203">
          <mxGeometry x="200" y="250" width="80" height="40" as="geometry" />
        </mxCell>
        <mxCell id="is51dW0UEI_fNz-svX4W-195" value="&lt;font style=&quot;font-size: 12px;&quot;&gt;LIDAR&lt;/font&gt;&lt;div&gt;&lt;font style=&quot;font-size: 12px;&quot;&gt;subtree&lt;/font&gt;&lt;/div&gt;" style="whiteSpace=wrap;html=1;rounded=0;shadow=1;labelBackgroundColor=none;strokeWidth=2;fontFamily=Verdana;fontSize=12;align=center;strokeColor=default;allowArrows=1;container=0;" vertex="1" parent="is51dW0UEI_fNz-svX4W-203">
          <mxGeometry y="250" width="80" height="40" as="geometry" />
        </mxCell>
        <mxCell id="is51dW0UEI_fNz-svX4W-196" value="&lt;font style=&quot;font-size: 12px;&quot;&gt;IMU&lt;/font&gt;&lt;div&gt;&lt;font style=&quot;font-size: 12px;&quot;&gt;subtree&lt;/font&gt;&lt;/div&gt;" style="whiteSpace=wrap;html=1;rounded=0;shadow=1;labelBackgroundColor=none;strokeWidth=2;fontFamily=Verdana;fontSize=12;align=center;strokeColor=default;allowArrows=1;container=0;" vertex="1" parent="is51dW0UEI_fNz-svX4W-203">
          <mxGeometry x="100" y="250" width="80" height="40" as="geometry" />
        </mxCell>
        <mxCell id="is51dW0UEI_fNz-svX4W-197" value="&lt;font style=&quot;font-size: 12px;&quot;&gt;Battery&lt;/font&gt;&lt;div&gt;&lt;font style=&quot;font-size: 12px;&quot;&gt;subtree&lt;/font&gt;&lt;/div&gt;" style="whiteSpace=wrap;html=1;rounded=0;shadow=1;labelBackgroundColor=none;strokeWidth=2;fontFamily=Verdana;fontSize=12;align=center;strokeColor=default;allowArrows=1;container=0;" vertex="1" parent="is51dW0UEI_fNz-svX4W-203">
          <mxGeometry x="304" y="250" width="80" height="40" as="geometry" />
        </mxCell>
        <mxCell id="is51dW0UEI_fNz-svX4W-198" value="&lt;font style=&quot;font-size: 12px;&quot;&gt;Gloabal Planner subtree&lt;/font&gt;" style="whiteSpace=wrap;html=1;rounded=0;shadow=1;labelBackgroundColor=none;strokeWidth=2;fontFamily=Verdana;fontSize=12;align=center;strokeColor=default;allowArrows=1;container=0;" vertex="1" parent="is51dW0UEI_fNz-svX4W-203">
          <mxGeometry x="410" y="250" width="80" height="40" as="geometry" />
        </mxCell>
        <mxCell id="is51dW0UEI_fNz-svX4W-199" value="&lt;font style=&quot;font-size: 12px;&quot;&gt;Collision subtree&lt;/font&gt;" style="whiteSpace=wrap;html=1;rounded=0;shadow=1;labelBackgroundColor=none;strokeWidth=2;fontFamily=Verdana;fontSize=12;align=center;strokeColor=default;allowArrows=1;container=0;" vertex="1" parent="is51dW0UEI_fNz-svX4W-203">
          <mxGeometry x="510" y="250" width="80" height="40" as="geometry" />
        </mxCell>
        <mxCell id="is51dW0UEI_fNz-svX4W-201" value="" style="edgeStyle=orthogonalEdgeStyle;rounded=0;orthogonalLoop=1;jettySize=auto;html=1;endArrow=none;endFill=0;" edge="1" parent="is51dW0UEI_fNz-svX4W-203" source="is51dW0UEI_fNz-svX4W-200" target="is51dW0UEI_fNz-svX4W-173">
          <mxGeometry relative="1" as="geometry" />
        </mxCell>
        <mxCell id="is51dW0UEI_fNz-svX4W-200" value="&lt;font style=&quot;font-size: 12px;&quot;&gt;Root&lt;/font&gt;" style="whiteSpace=wrap;html=1;rounded=0;shadow=1;labelBackgroundColor=none;strokeWidth=2;fontFamily=Verdana;fontSize=12;align=center;strokeColor=default;allowArrows=1;container=0;" vertex="1" parent="is51dW0UEI_fNz-svX4W-203">
          <mxGeometry x="250" width="80" height="40" as="geometry" />
        </mxCell>
        <mxCell id="is51dW0UEI_fNz-svX4W-204" value="&lt;font style=&quot;font-size: 20px;&quot;&gt;?&lt;/font&gt;&lt;div&gt;&lt;br/&gt;&lt;/div&gt;" style="whiteSpace=wrap;html=1;rounded=0;shadow=1;labelBackgroundColor=none;strokeWidth=2;fontFamily=Verdana;fontSize=12;align=center;" vertex="1" parent="1">
          <mxGeometry x="-315" y="-450" width="120" height="47" as="geometry" />
        </mxCell>
        <mxCell id="is51dW0UEI_fNz-svX4W-205" value="Is LIDAR working?" style="ellipse;whiteSpace=wrap;html=1;shadow=1;strokeWidth=2;" vertex="1" parent="1">
          <mxGeometry x="-630" y="-270.31" width="110" height="49.5" as="geometry" />
        </mxCell>
        <mxCell id="is51dW0UEI_fNz-svX4W-206" style="edgeStyle=none;shape=connector;rounded=0;orthogonalLoop=1;jettySize=auto;html=1;exitX=1;exitY=0;exitDx=0;exitDy=0;entryX=0.25;entryY=1;entryDx=0;entryDy=0;labelBackgroundColor=default;strokeColor=default;align=center;verticalAlign=middle;fontFamily=Helvetica;fontSize=11;fontColor=default;endArrow=none;endFill=0;" edge="1" parent="1" source="is51dW0UEI_fNz-svX4W-205" target="is51dW0UEI_fNz-svX4W-204">
          <mxGeometry relative="1" as="geometry" />
        </mxCell>
        <mxCell id="is51dW0UEI_fNz-svX4W-207" value="" style="edgeStyle=none;shape=connector;rounded=0;orthogonalLoop=1;jettySize=auto;html=1;labelBackgroundColor=default;strokeColor=default;align=center;verticalAlign=middle;fontFamily=Helvetica;fontSize=11;fontColor=default;endArrow=none;endFill=0;entryX=0.75;entryY=1;entryDx=0;entryDy=0;exitX=0.5;exitY=0;exitDx=0;exitDy=0;" edge="1" parent="1" source="is51dW0UEI_fNz-svX4W-230" target="is51dW0UEI_fNz-svX4W-231">
          <mxGeometry relative="1" as="geometry" />
        </mxCell>
        <mxCell id="is51dW0UEI_fNz-svX4W-208" value="" style="edgeStyle=none;shape=connector;rounded=0;orthogonalLoop=1;jettySize=auto;html=1;labelBackgroundColor=default;strokeColor=default;align=center;verticalAlign=middle;fontFamily=Helvetica;fontSize=11;fontColor=default;endArrow=none;endFill=0;" edge="1" parent="1" source="is51dW0UEI_fNz-svX4W-209" target="is51dW0UEI_fNz-svX4W-204">
          <mxGeometry relative="1" as="geometry" />
        </mxCell>
        <mxCell id="is51dW0UEI_fNz-svX4W-209" value="&lt;font style=&quot;font-size: 22px;&quot;&gt;→&lt;/font&gt;" style="whiteSpace=wrap;html=1;rounded=0;shadow=1;labelBackgroundColor=none;strokeWidth=2;fontFamily=Verdana;fontSize=12;align=center;" vertex="1" parent="1">
          <mxGeometry x="-400" y="-260.56" width="65" height="30" as="geometry" />
        </mxCell>
        <mxCell id="is51dW0UEI_fNz-svX4W-210" value="" style="rounded=0;orthogonalLoop=1;jettySize=auto;html=1;endArrow=none;endFill=0;exitX=0.5;exitY=0;exitDx=0;exitDy=0;" edge="1" parent="1" source="is51dW0UEI_fNz-svX4W-217" target="is51dW0UEI_fNz-svX4W-209">
          <mxGeometry relative="1" as="geometry">
            <mxPoint x="-425" y="-178.06" as="sourcePoint" />
          </mxGeometry>
        </mxCell>
        <mxCell id="is51dW0UEI_fNz-svX4W-211" value="" style="edgeStyle=none;shape=connector;rounded=0;orthogonalLoop=1;jettySize=auto;html=1;labelBackgroundColor=default;strokeColor=default;align=center;verticalAlign=middle;fontFamily=Helvetica;fontSize=11;fontColor=default;endArrow=none;endFill=0;" edge="1" parent="1" source="is51dW0UEI_fNz-svX4W-212" target="is51dW0UEI_fNz-svX4W-209">
          <mxGeometry relative="1" as="geometry" />
        </mxCell>
        <mxCell id="is51dW0UEI_fNz-svX4W-212" value="Restart LIDAR" style="whiteSpace=wrap;html=1;rounded=0;shadow=1;labelBackgroundColor=none;strokeWidth=2;fontFamily=Verdana;fontSize=12;align=center;fontColor=default;" vertex="1" parent="1">
          <mxGeometry x="-415" y="-195.06000000000012" width="80" height="40" as="geometry" />
        </mxCell>
        <mxCell id="is51dW0UEI_fNz-svX4W-213" value="" style="edgeStyle=none;shape=connector;rounded=0;orthogonalLoop=1;jettySize=auto;html=1;labelBackgroundColor=default;strokeColor=default;align=center;verticalAlign=middle;fontFamily=Helvetica;fontSize=11;fontColor=default;endArrow=none;endFill=0;exitX=0.5;exitY=0;exitDx=0;exitDy=0;" edge="1" parent="1" source="is51dW0UEI_fNz-svX4W-218" target="is51dW0UEI_fNz-svX4W-209">
          <mxGeometry relative="1" as="geometry">
            <mxPoint x="-175" y="-258.06" as="sourcePoint" />
          </mxGeometry>
        </mxCell>
        <mxCell id="is51dW0UEI_fNz-svX4W-214" value="" style="edgeStyle=none;shape=connector;rounded=0;orthogonalLoop=1;jettySize=auto;html=1;labelBackgroundColor=default;strokeColor=default;align=center;verticalAlign=middle;fontFamily=Helvetica;fontSize=11;fontColor=default;endArrow=none;endFill=0;exitX=0.25;exitY=1;exitDx=0;exitDy=0;entryX=0.5;entryY=0;entryDx=0;entryDy=0;" edge="1" parent="1" source="is51dW0UEI_fNz-svX4W-231" target="is51dW0UEI_fNz-svX4W-232">
          <mxGeometry relative="1" as="geometry">
            <mxPoint x="25" y="89.88" as="sourcePoint" />
          </mxGeometry>
        </mxCell>
        <mxCell id="is51dW0UEI_fNz-svX4W-215" value="" style="edgeStyle=none;shape=connector;rounded=0;orthogonalLoop=1;jettySize=auto;html=1;labelBackgroundColor=default;strokeColor=default;align=center;verticalAlign=middle;fontFamily=Helvetica;fontSize=11;fontColor=default;endArrow=none;endFill=0;entryX=0.75;entryY=1;entryDx=0;entryDy=0;exitX=0.5;exitY=0;exitDx=0;exitDy=0;" edge="1" parent="1" source="is51dW0UEI_fNz-svX4W-231" target="is51dW0UEI_fNz-svX4W-204">
          <mxGeometry relative="1" as="geometry">
            <mxPoint x="25" y="-380" as="sourcePoint" />
          </mxGeometry>
        </mxCell>
        <mxCell id="is51dW0UEI_fNz-svX4W-216" style="edgeStyle=none;shape=connector;rounded=0;orthogonalLoop=1;jettySize=auto;html=1;exitX=0.5;exitY=1;exitDx=0;exitDy=0;labelBackgroundColor=default;strokeColor=default;align=center;verticalAlign=middle;fontFamily=Helvetica;fontSize=11;fontColor=default;endArrow=none;endFill=0;" edge="1" parent="1" source="is51dW0UEI_fNz-svX4W-209" target="is51dW0UEI_fNz-svX4W-209">
          <mxGeometry relative="1" as="geometry" />
        </mxCell>
        <mxCell id="is51dW0UEI_fNz-svX4W-217" value="Reduce speed" style="whiteSpace=wrap;html=1;rounded=0;shadow=1;labelBackgroundColor=none;strokeWidth=2;fontFamily=Verdana;fontSize=12;align=center;" vertex="1" parent="1">
          <mxGeometry x="-505" y="-198.93" width="80" height="45.5" as="geometry" />
        </mxCell>
        <mxCell id="is51dW0UEI_fNz-svX4W-218" value="Recover speed" style="whiteSpace=wrap;html=1;rounded=0;shadow=1;labelBackgroundColor=none;strokeWidth=2;fontFamily=Verdana;fontSize=12;align=center;" vertex="1" parent="1">
          <mxGeometry x="-325" y="-195.06" width="80" height="40" as="geometry" />
        </mxCell>
        <mxCell id="is51dW0UEI_fNz-svX4W-219" value="&lt;font style=&quot;font-size: 22px;&quot;&gt;→&lt;/font&gt;" style="whiteSpace=wrap;html=1;rounded=0;shadow=1;labelBackgroundColor=none;strokeWidth=2;fontFamily=Verdana;fontSize=12;align=center;" vertex="1" parent="1">
          <mxGeometry x="-87.5" y="-264.37" width="65" height="30" as="geometry" />
        </mxCell>
        <mxCell id="is51dW0UEI_fNz-svX4W-220" value="" style="rounded=0;orthogonalLoop=1;jettySize=auto;html=1;endArrow=none;endFill=0;exitX=0.5;exitY=0;exitDx=0;exitDy=0;" edge="1" parent="1" source="is51dW0UEI_fNz-svX4W-224" target="is51dW0UEI_fNz-svX4W-219">
          <mxGeometry relative="1" as="geometry">
            <mxPoint x="-120" y="-254" as="sourcePoint" />
          </mxGeometry>
        </mxCell>
        <mxCell id="is51dW0UEI_fNz-svX4W-221" value="" style="edgeStyle=none;shape=connector;rounded=0;orthogonalLoop=1;jettySize=auto;html=1;labelBackgroundColor=default;strokeColor=default;align=center;verticalAlign=middle;fontFamily=Helvetica;fontSize=11;fontColor=default;endArrow=none;endFill=0;exitX=0.5;exitY=0;exitDx=0;exitDy=0;" edge="1" parent="1" source="is51dW0UEI_fNz-svX4W-226" target="is51dW0UEI_fNz-svX4W-219">
          <mxGeometry relative="1" as="geometry">
            <mxPoint x="100" y="-187.5" as="sourcePoint" />
          </mxGeometry>
        </mxCell>
        <mxCell id="is51dW0UEI_fNz-svX4W-222" value="Restart LIDAR" style="whiteSpace=wrap;html=1;rounded=0;shadow=1;labelBackgroundColor=none;strokeWidth=2;fontFamily=Verdana;fontSize=12;align=center;fontColor=default;" vertex="1" parent="1">
          <mxGeometry x="-95" y="-47.500000000000114" width="80" height="40" as="geometry" />
        </mxCell>
        <mxCell id="is51dW0UEI_fNz-svX4W-223" style="edgeStyle=none;shape=connector;rounded=0;orthogonalLoop=1;jettySize=auto;html=1;exitX=0.5;exitY=1;exitDx=0;exitDy=0;labelBackgroundColor=default;strokeColor=default;align=center;verticalAlign=middle;fontFamily=Helvetica;fontSize=11;fontColor=default;endArrow=none;endFill=0;" edge="1" parent="1" source="is51dW0UEI_fNz-svX4W-219" target="is51dW0UEI_fNz-svX4W-219">
          <mxGeometry relative="1" as="geometry" />
        </mxCell>
        <mxCell id="is51dW0UEI_fNz-svX4W-224" value="Full stop" style="whiteSpace=wrap;html=1;rounded=0;shadow=1;labelBackgroundColor=none;strokeWidth=2;fontFamily=Verdana;fontSize=12;align=center;" vertex="1" parent="1">
          <mxGeometry x="-210" y="-151.37" width="80" height="40" as="geometry" />
        </mxCell>
        <mxCell id="is51dW0UEI_fNz-svX4W-225" value="" style="edgeStyle=none;shape=connector;rounded=0;orthogonalLoop=1;jettySize=auto;html=1;labelBackgroundColor=default;strokeColor=default;align=center;verticalAlign=middle;fontFamily=Helvetica;fontSize=11;fontColor=default;endArrow=none;endFill=0;entryX=0.5;entryY=1;entryDx=0;entryDy=0;exitX=0.5;exitY=0;exitDx=0;exitDy=0;" edge="1" parent="1" source="is51dW0UEI_fNz-svX4W-219" target="is51dW0UEI_fNz-svX4W-204">
          <mxGeometry relative="1" as="geometry">
            <mxPoint x="-185" y="-369.32" as="sourcePoint" />
            <mxPoint x="-154" y="-409.32" as="targetPoint" />
          </mxGeometry>
        </mxCell>
        <mxCell id="is51dW0UEI_fNz-svX4W-226" value="Repeat until successful&lt;br&gt;2 times" style="rhombus;whiteSpace=wrap;html=1;strokeWidth=2;shadow=1;" vertex="1" parent="1">
          <mxGeometry x="-110" y="-196.87" width="110" height="129.37" as="geometry" />
        </mxCell>
        <mxCell id="is51dW0UEI_fNz-svX4W-227" value="" style="edgeStyle=none;shape=connector;rounded=0;orthogonalLoop=1;jettySize=auto;html=1;labelBackgroundColor=default;strokeColor=default;align=center;verticalAlign=middle;fontFamily=Helvetica;fontSize=11;fontColor=default;endArrow=none;endFill=0;exitX=0.5;exitY=0;exitDx=0;exitDy=0;entryX=0.5;entryY=1;entryDx=0;entryDy=0;" edge="1" parent="1" source="is51dW0UEI_fNz-svX4W-222" target="is51dW0UEI_fNz-svX4W-226">
          <mxGeometry relative="1" as="geometry">
            <mxPoint x="20" y="-60.620000000000005" as="sourcePoint" />
            <mxPoint x="-40" y="-122.5" as="targetPoint" />
          </mxGeometry>
        </mxCell>
        <mxCell id="is51dW0UEI_fNz-svX4W-228" value="Recover speed" style="whiteSpace=wrap;html=1;rounded=0;shadow=1;labelBackgroundColor=none;strokeWidth=2;fontFamily=Verdana;fontSize=12;align=center;" vertex="1" parent="1">
          <mxGeometry x="30" y="-143.25" width="80" height="40" as="geometry" />
        </mxCell>
        <mxCell id="is51dW0UEI_fNz-svX4W-229" value="" style="edgeStyle=none;shape=connector;rounded=0;orthogonalLoop=1;jettySize=auto;html=1;labelBackgroundColor=default;strokeColor=default;align=center;verticalAlign=middle;fontFamily=Helvetica;fontSize=11;fontColor=default;endArrow=none;endFill=0;exitX=0.5;exitY=0;exitDx=0;exitDy=0;entryX=1;entryY=1;entryDx=0;entryDy=0;" edge="1" parent="1" source="is51dW0UEI_fNz-svX4W-228" target="is51dW0UEI_fNz-svX4W-219">
          <mxGeometry relative="1" as="geometry">
            <mxPoint x="-150" y="-171.5" as="sourcePoint" />
            <mxPoint x="-249" y="-219.5" as="targetPoint" />
          </mxGeometry>
        </mxCell>
        <mxCell id="is51dW0UEI_fNz-svX4W-230" value="Set failure state" style="whiteSpace=wrap;html=1;rounded=0;shadow=1;labelBackgroundColor=none;strokeWidth=2;fontFamily=Verdana;fontSize=12;align=center;fontColor=default;" vertex="1" parent="1">
          <mxGeometry x="255" y="-183.2500000000001" width="80" height="40" as="geometry" />
        </mxCell>
        <mxCell id="is51dW0UEI_fNz-svX4W-231" value="&lt;font style=&quot;font-size: 22px;&quot;&gt;→&lt;/font&gt;" style="whiteSpace=wrap;html=1;rounded=0;shadow=1;labelBackgroundColor=none;strokeWidth=2;fontFamily=Verdana;fontSize=12;align=center;" vertex="1" parent="1">
          <mxGeometry x="195" y="-272" width="65" height="30" as="geometry" />
        </mxCell>
        <mxCell id="is51dW0UEI_fNz-svX4W-232" value="Cancel task" style="whiteSpace=wrap;html=1;rounded=0;shadow=1;labelBackgroundColor=none;strokeWidth=2;fontFamily=Verdana;fontSize=12;align=center;fontColor=default;" vertex="1" parent="1">
          <mxGeometry x="155" y="-187" width="65" height="47" as="geometry" />
        </mxCell>
        <mxCell id="is51dW0UEI_fNz-svX4W-233" value="Lidar subtree" style="text;html=1;align=center;verticalAlign=middle;whiteSpace=wrap;rounded=0;fontSize=16;fontStyle=1" vertex="1" parent="1">
          <mxGeometry x="-285" y="-547" width="60" height="30" as="geometry" />
        </mxCell>
        <mxCell id="is51dW0UEI_fNz-svX4W-234" value="&lt;font style=&quot;font-size: 12px;&quot;&gt;?&lt;/font&gt;" style="whiteSpace=wrap;html=1;rounded=0;shadow=1;labelBackgroundColor=none;strokeWidth=2;fontFamily=Verdana;fontSize=12;align=center;strokeColor=default;allowArrows=1;container=0;" vertex="1" parent="1">
          <mxGeometry x="490" y="-490" width="80" height="40" as="geometry" />
        </mxCell>
        <mxCell id="gCTk7gotpWlxbPK6NRCB-1" value="" style="group" connectable="0" vertex="1" parent="1">
          <mxGeometry x="80" y="2520" width="230" height="210" as="geometry" />
        </mxCell>
        <mxCell id="gCTk7gotpWlxbPK6NRCB-6" style="edgeStyle=orthogonalEdgeStyle;rounded=0;orthogonalLoop=1;jettySize=auto;html=1;" edge="1" parent="gCTk7gotpWlxbPK6NRCB-1" source="gCTk7gotpWlxbPK6NRCB-2">
          <mxGeometry relative="1" as="geometry">
            <mxPoint x="390" y="114.54545454545496" as="targetPoint" />
          </mxGeometry>
        </mxCell>
        <mxCell id="gCTk7gotpWlxbPK6NRCB-9" value="Get&lt;br&gt;Battery level&lt;br&gt;Service" style="edgeLabel;html=1;align=center;verticalAlign=middle;resizable=0;points=[];" connectable="0" vertex="1" parent="gCTk7gotpWlxbPK6NRCB-6">
          <mxGeometry x="-0.1044" y="-1" relative="1" as="geometry">
            <mxPoint as="offset" />
          </mxGeometry>
        </mxCell>
        <mxCell id="gCTk7gotpWlxbPK6NRCB-7" style="edgeStyle=orthogonalEdgeStyle;rounded=0;orthogonalLoop=1;jettySize=auto;html=1;exitX=0;exitY=0.5;exitDx=0;exitDy=0;entryX=0;entryY=0.5;entryDx=0;entryDy=0;" edge="1" parent="gCTk7gotpWlxbPK6NRCB-1" target="gCTk7gotpWlxbPK6NRCB-2">
          <mxGeometry relative="1" as="geometry">
            <mxPoint x="-120.00000000000023" y="114.66666666666697" as="sourcePoint" />
          </mxGeometry>
        </mxCell>
        <mxCell id="gCTk7gotpWlxbPK6NRCB-8" value="/cmd_vel" style="edgeLabel;html=1;align=center;verticalAlign=middle;resizable=0;points=[];" connectable="0" vertex="1" parent="gCTk7gotpWlxbPK6NRCB-7">
          <mxGeometry x="-0.0027" relative="1" as="geometry">
            <mxPoint as="offset" />
          </mxGeometry>
        </mxCell>
        <mxCell id="gCTk7gotpWlxbPK6NRCB-2" value="" style="rounded=0;whiteSpace=wrap;html=1;" vertex="1" parent="gCTk7gotpWlxbPK6NRCB-1">
          <mxGeometry y="19.09090909090909" width="230.00000000000006" height="190.90909090909093" as="geometry" />
        </mxCell>
        <mxCell id="gCTk7gotpWlxbPK6NRCB-3" value="Battery simulation unit" style="text;html=1;align=center;verticalAlign=middle;whiteSpace=wrap;rounded=0;fontStyle=1" vertex="1" parent="gCTk7gotpWlxbPK6NRCB-1">
          <mxGeometry x="63.75" y="19.09" width="102.5" height="60" as="geometry" />
        </mxCell>
        <mxCell id="gCTk7gotpWlxbPK6NRCB-4" value="class BatterySimulationUnit&lt;br&gt;&lt;br&gt;node_name: battery_simulatioin_unit&lt;br&gt;sub: cmd_vel&lt;br&gt;srv: get_battery_level_service&lt;div&gt;&lt;br&gt;&lt;/div&gt;" style="text;html=1;align=left;verticalAlign=middle;whiteSpace=wrap;rounded=0;fontStyle=2;movable=1;resizable=1;rotatable=1;deletable=1;editable=1;locked=0;connectable=1;" vertex="1" parent="gCTk7gotpWlxbPK6NRCB-1">
          <mxGeometry x="11.761363636363638" y="91.30753692531724" width="206.47727272727278" height="130.62200956937798" as="geometry" />
        </mxCell>
        <mxCell id="gCTk7gotpWlxbPK6NRCB-10" value="" style="group;fillColor=none;strokeColor=none;" connectable="0" vertex="1" parent="1">
          <mxGeometry x="130" y="840" width="220" height="190" as="geometry" />
        </mxCell>
        <mxCell id="gCTk7gotpWlxbPK6NRCB-14" style="edgeStyle=orthogonalEdgeStyle;rounded=0;orthogonalLoop=1;jettySize=auto;html=1;exitX=0;exitY=0.5;exitDx=0;exitDy=0;entryX=0;entryY=0.5;entryDx=0;entryDy=0;" edge="1" parent="gCTk7gotpWlxbPK6NRCB-10" target="gCTk7gotpWlxbPK6NRCB-11">
          <mxGeometry relative="1" as="geometry">
            <mxPoint x="-90" y="95.28571428571422" as="sourcePoint" />
          </mxGeometry>
        </mxCell>
        <mxCell id="gCTk7gotpWlxbPK6NRCB-21" value="/orig_imu" style="edgeLabel;html=1;align=center;verticalAlign=middle;resizable=0;points=[];" connectable="0" vertex="1" parent="gCTk7gotpWlxbPK6NRCB-14">
          <mxGeometry x="-0.1506" y="1" relative="1" as="geometry">
            <mxPoint as="offset" />
          </mxGeometry>
        </mxCell>
        <mxCell id="gCTk7gotpWlxbPK6NRCB-11" value="" style="rounded=0;whiteSpace=wrap;html=1;" vertex="1" parent="gCTk7gotpWlxbPK6NRCB-10">
          <mxGeometry width="220" height="190" as="geometry" />
        </mxCell>
        <mxCell id="gCTk7gotpWlxbPK6NRCB-12" value="Failure simulation unit" style="text;html=1;align=center;verticalAlign=middle;whiteSpace=wrap;rounded=0;fontStyle=1" vertex="1" parent="gCTk7gotpWlxbPK6NRCB-10">
          <mxGeometry x="45" width="130" height="40" as="geometry" />
        </mxCell>
        <mxCell id="gCTk7gotpWlxbPK6NRCB-13" value="class LidarRemappingNode&lt;div&gt;remap: orig_scan -&amp;gt; scan&lt;/div&gt;&lt;div&gt;&lt;br&gt;&lt;/div&gt;&lt;div&gt;class ImuRemappingNode&lt;/div&gt;&lt;div&gt;remap: orig_imu -&amp;gt; imu&lt;/div&gt;&lt;div&gt;&lt;br&gt;&lt;/div&gt;&lt;div&gt;class OdomRemappingNode&lt;/div&gt;&lt;div&gt;remap: orig_odom -&amp;gt; odom&lt;/div&gt;" style="text;html=1;align=left;verticalAlign=middle;whiteSpace=wrap;rounded=0;fontStyle=2;movable=1;resizable=1;rotatable=1;deletable=1;editable=1;locked=0;connectable=1;" vertex="1" parent="gCTk7gotpWlxbPK6NRCB-10">
          <mxGeometry x="5.630000000000004" y="50" width="208.75" height="130" as="geometry" />
        </mxCell>
        <mxCell id="gCTk7gotpWlxbPK6NRCB-15" style="edgeStyle=orthogonalEdgeStyle;rounded=0;orthogonalLoop=1;jettySize=auto;html=1;exitX=0;exitY=0.5;exitDx=0;exitDy=0;entryX=0;entryY=0.5;entryDx=0;entryDy=0;" edge="1" parent="1">
          <mxGeometry relative="1" as="geometry">
            <mxPoint x="440" y="985" as="targetPoint" />
            <mxPoint x="350" y="985.2857142857142" as="sourcePoint" />
          </mxGeometry>
        </mxCell>
        <mxCell id="gCTk7gotpWlxbPK6NRCB-25" value="/odom" style="edgeLabel;html=1;align=center;verticalAlign=middle;resizable=0;points=[];" connectable="0" vertex="1" parent="gCTk7gotpWlxbPK6NRCB-15">
          <mxGeometry x="-0.1012" relative="1" as="geometry">
            <mxPoint as="offset" />
          </mxGeometry>
        </mxCell>
        <mxCell id="gCTk7gotpWlxbPK6NRCB-16" style="edgeStyle=orthogonalEdgeStyle;rounded=0;orthogonalLoop=1;jettySize=auto;html=1;exitX=0;exitY=0.5;exitDx=0;exitDy=0;entryX=0;entryY=0.5;entryDx=0;entryDy=0;" edge="1" parent="1">
          <mxGeometry relative="1" as="geometry">
            <mxPoint x="130" y="985" as="targetPoint" />
            <mxPoint x="40" y="985.2857142857142" as="sourcePoint" />
          </mxGeometry>
        </mxCell>
        <mxCell id="gCTk7gotpWlxbPK6NRCB-22" value="/orig_odom" style="edgeLabel;html=1;align=center;verticalAlign=middle;resizable=0;points=[];" connectable="0" vertex="1" parent="gCTk7gotpWlxbPK6NRCB-16">
          <mxGeometry x="-0.0951" y="1" relative="1" as="geometry">
            <mxPoint as="offset" />
          </mxGeometry>
        </mxCell>
        <mxCell id="gCTk7gotpWlxbPK6NRCB-17" style="edgeStyle=orthogonalEdgeStyle;rounded=0;orthogonalLoop=1;jettySize=auto;html=1;exitX=0;exitY=0.5;exitDx=0;exitDy=0;entryX=0;entryY=0.5;entryDx=0;entryDy=0;" edge="1" parent="1">
          <mxGeometry relative="1" as="geometry">
            <mxPoint x="130" y="886.58" as="targetPoint" />
            <mxPoint x="40" y="886.8657142857143" as="sourcePoint" />
          </mxGeometry>
        </mxCell>
        <mxCell id="gCTk7gotpWlxbPK6NRCB-20" value="/orig_scan" style="edgeLabel;html=1;align=center;verticalAlign=middle;resizable=0;points=[];" connectable="0" vertex="1" parent="gCTk7gotpWlxbPK6NRCB-17">
          <mxGeometry x="-0.1454" y="-1" relative="1" as="geometry">
            <mxPoint x="1" y="-2" as="offset" />
          </mxGeometry>
        </mxCell>
        <mxCell id="gCTk7gotpWlxbPK6NRCB-18" style="edgeStyle=orthogonalEdgeStyle;rounded=0;orthogonalLoop=1;jettySize=auto;html=1;exitX=0;exitY=0.5;exitDx=0;exitDy=0;entryX=0;entryY=0.5;entryDx=0;entryDy=0;" edge="1" parent="1">
          <mxGeometry relative="1" as="geometry">
            <mxPoint x="440" y="885.78" as="targetPoint" />
            <mxPoint x="350" y="886.0657142857142" as="sourcePoint" />
          </mxGeometry>
        </mxCell>
        <mxCell id="gCTk7gotpWlxbPK6NRCB-23" value="/scan" style="edgeLabel;html=1;align=center;verticalAlign=middle;resizable=0;points=[];" connectable="0" vertex="1" parent="gCTk7gotpWlxbPK6NRCB-18">
          <mxGeometry x="-0.0758" y="-1" relative="1" as="geometry">
            <mxPoint as="offset" />
          </mxGeometry>
        </mxCell>
        <mxCell id="gCTk7gotpWlxbPK6NRCB-19" style="edgeStyle=orthogonalEdgeStyle;rounded=0;orthogonalLoop=1;jettySize=auto;html=1;exitX=0;exitY=0.5;exitDx=0;exitDy=0;entryX=0;entryY=0.5;entryDx=0;entryDy=0;" edge="1" parent="1">
          <mxGeometry relative="1" as="geometry">
            <mxPoint x="440" y="934.6" as="targetPoint" />
            <mxPoint x="350" y="934.8857142857142" as="sourcePoint" />
          </mxGeometry>
        </mxCell>
        <mxCell id="gCTk7gotpWlxbPK6NRCB-24" value="/imu" style="edgeLabel;html=1;align=center;verticalAlign=middle;resizable=0;points=[];" connectable="0" vertex="1" parent="gCTk7gotpWlxbPK6NRCB-19">
          <mxGeometry x="-0.076" relative="1" as="geometry">
            <mxPoint as="offset" />
          </mxGeometry>
        </mxCell>
        <mxCell id="gCTk7gotpWlxbPK6NRCB-26" value="" style="group" connectable="0" vertex="1" parent="1">
          <mxGeometry x="-50" y="2850" width="420" height="220" as="geometry" />
        </mxCell>
        <mxCell id="gCTk7gotpWlxbPK6NRCB-27" value="" style="rounded=0;whiteSpace=wrap;html=1;" vertex="1" parent="gCTk7gotpWlxbPK6NRCB-26">
          <mxGeometry y="19.09" width="420" height="200.91" as="geometry" />
        </mxCell>
        <mxCell id="gCTk7gotpWlxbPK6NRCB-28" value="&lt;font style=&quot;font-size: 14px;&quot;&gt;DMS interfaces&lt;/font&gt;" style="text;html=1;align=center;verticalAlign=middle;whiteSpace=wrap;rounded=0;fontStyle=1" vertex="1" parent="gCTk7gotpWlxbPK6NRCB-26">
          <mxGeometry x="152.5" width="115.00000000000003" height="80.38277511961722" as="geometry" />
        </mxCell>
        <mxCell id="gCTk7gotpWlxbPK6NRCB-29" value="&lt;div&gt;&lt;span style=&quot;background-color: initial;&quot;&gt;Messages:&lt;/span&gt;&lt;/div&gt;&lt;div&gt;&lt;span style=&quot;background-color: initial;&quot;&gt;&lt;br&gt;&lt;/span&gt;Obstacle.msg&lt;/div&gt;&lt;div&gt;ObstacleArray.msg&lt;/div&gt;" style="text;html=1;align=left;verticalAlign=middle;whiteSpace=wrap;rounded=0;fontStyle=2;movable=1;resizable=1;rotatable=1;deletable=1;editable=1;locked=0;connectable=1;strokeColor=default;" vertex="1" parent="gCTk7gotpWlxbPK6NRCB-26">
          <mxGeometry x="11.76" y="70" width="188.24" height="140" as="geometry" />
        </mxCell>
        <mxCell id="gCTk7gotpWlxbPK6NRCB-30" value="&lt;div&gt;Services:&lt;/div&gt;&lt;div&gt;&lt;br&gt;&lt;/div&gt;&lt;div&gt;GetBatteryLevel.srv&lt;/div&gt;&lt;div&gt;GetGoal.srv&lt;/div&gt;&lt;div&gt;GetGoalDistance.srv&lt;/div&gt;&lt;div&gt;GetLastMap.srv&lt;/div&gt;&lt;div&gt;GetPose.srv&lt;/div&gt;&lt;div&gt;PubResCmdVel.srv&lt;/div&gt;&lt;div&gt;SendMap.srv&lt;/div&gt;" style="text;html=1;align=left;verticalAlign=middle;whiteSpace=wrap;rounded=0;fontStyle=2;movable=1;resizable=1;rotatable=1;deletable=1;editable=1;locked=0;connectable=1;perimeterSpacing=1;fillColor=none;strokeColor=default;" vertex="1" parent="gCTk7gotpWlxbPK6NRCB-26">
          <mxGeometry x="220" y="70" width="190" height="140" as="geometry" />
        </mxCell>
        <mxCell id="gCTk7gotpWlxbPK6NRCB-56" style="edgeStyle=orthogonalEdgeStyle;rounded=0;orthogonalLoop=1;jettySize=auto;html=1;exitX=0.5;exitY=1;exitDx=0;exitDy=0;entryX=0.5;entryY=0;entryDx=0;entryDy=0;" edge="1" parent="1" source="gCTk7gotpWlxbPK6NRCB-49" target="gCTk7gotpWlxbPK6NRCB-54">
          <mxGeometry relative="1" as="geometry" />
        </mxCell>
        <mxCell id="gCTk7gotpWlxbPK6NRCB-57" value="Detected blobs" style="edgeLabel;html=1;align=center;verticalAlign=middle;resizable=0;points=[];" connectable="0" vertex="1" parent="gCTk7gotpWlxbPK6NRCB-56">
          <mxGeometry x="-0.0109" y="1" relative="1" as="geometry">
            <mxPoint as="offset" />
          </mxGeometry>
        </mxCell>
        <mxCell id="gCTk7gotpWlxbPK6NRCB-49" value="Costmap conversion" style="rounded=0;whiteSpace=wrap;html=1;movable=1;resizable=1;rotatable=1;deletable=1;editable=1;locked=0;connectable=1;fontStyle=1;container=0;" vertex="1" parent="1">
          <mxGeometry x="3149.996956521739" y="234.67263157894735" width="125.21739130434783" height="61.578947368421055" as="geometry" />
        </mxCell>
        <mxCell id="gCTk7gotpWlxbPK6NRCB-58" style="edgeStyle=orthogonalEdgeStyle;rounded=0;orthogonalLoop=1;jettySize=auto;html=1;exitX=0.5;exitY=1;exitDx=0;exitDy=0;entryX=0.5;entryY=0;entryDx=0;entryDy=0;" edge="1" parent="1" source="gCTk7gotpWlxbPK6NRCB-54" target="gCTk7gotpWlxbPK6NRCB-55">
          <mxGeometry relative="1" as="geometry" />
        </mxCell>
        <mxCell id="gCTk7gotpWlxbPK6NRCB-59" value="Tracked blobs" style="edgeLabel;html=1;align=center;verticalAlign=middle;resizable=0;points=[];" connectable="0" vertex="1" parent="gCTk7gotpWlxbPK6NRCB-58">
          <mxGeometry x="-0.054" y="1" relative="1" as="geometry">
            <mxPoint as="offset" />
          </mxGeometry>
        </mxCell>
        <mxCell id="gCTk7gotpWlxbPK6NRCB-54" value="Tracking and estimation" style="rounded=0;whiteSpace=wrap;html=1;movable=1;resizable=1;rotatable=1;deletable=1;editable=1;locked=0;connectable=1;fontStyle=1;container=0;" vertex="1" parent="1">
          <mxGeometry x="3149.996956521739" y="361.96263157894737" width="125.21739130434783" height="61.578947368421055" as="geometry" />
        </mxCell>
        <mxCell id="gCTk7gotpWlxbPK6NRCB-62" style="edgeStyle=orthogonalEdgeStyle;rounded=0;orthogonalLoop=1;jettySize=auto;html=1;exitX=0;exitY=0.5;exitDx=0;exitDy=0;entryX=1;entryY=0.75;entryDx=0;entryDy=0;" edge="1" parent="1" source="gCTk7gotpWlxbPK6NRCB-55" target="is51dW0UEI_fNz-svX4W-18">
          <mxGeometry relative="1" as="geometry" />
        </mxCell>
        <mxCell id="gCTk7gotpWlxbPK6NRCB-63" value="Costmap&lt;div&gt;Layer&lt;/div&gt;" style="edgeLabel;html=1;align=center;verticalAlign=middle;resizable=0;points=[];" connectable="0" vertex="1" parent="gCTk7gotpWlxbPK6NRCB-62">
          <mxGeometry x="0.5789" y="2" relative="1" as="geometry">
            <mxPoint as="offset" />
          </mxGeometry>
        </mxCell>
        <mxCell id="gCTk7gotpWlxbPK6NRCB-55" value="Gredient layer creation" style="rounded=0;whiteSpace=wrap;html=1;movable=1;resizable=1;rotatable=1;deletable=1;editable=1;locked=0;connectable=1;fontStyle=1;container=0;" vertex="1" parent="1">
          <mxGeometry x="3149.996956521739" y="493.75263157894733" width="125.21739130434783" height="61.578947368421055" as="geometry" />
        </mxCell>
        <mxCell id="gCTk7gotpWlxbPK6NRCB-60" style="edgeStyle=orthogonalEdgeStyle;rounded=0;orthogonalLoop=1;jettySize=auto;html=1;exitX=1;exitY=0.25;exitDx=0;exitDy=0;entryX=0;entryY=0.5;entryDx=0;entryDy=0;" edge="1" parent="1" source="is51dW0UEI_fNz-svX4W-18" target="gCTk7gotpWlxbPK6NRCB-49">
          <mxGeometry relative="1" as="geometry" />
        </mxCell>
        <mxCell id="gCTk7gotpWlxbPK6NRCB-61" value="Costmap" style="edgeLabel;html=1;align=center;verticalAlign=middle;resizable=0;points=[];" connectable="0" vertex="1" parent="gCTk7gotpWlxbPK6NRCB-60">
          <mxGeometry x="-0.57" y="-2" relative="1" as="geometry">
            <mxPoint as="offset" />
          </mxGeometry>
        </mxCell>
        <mxCell id="gCTk7gotpWlxbPK6NRCB-64" value="" style="rounded=0;whiteSpace=wrap;html=1;fillColor=none;dashed=1;dashPattern=12 12;" vertex="1" parent="1">
          <mxGeometry x="3037.61" y="147.5" width="342.39" height="432.5" as="geometry" />
        </mxCell>
        <mxCell id="gCTk7gotpWlxbPK6NRCB-65" value="&lt;font style=&quot;font-size: 20px;&quot;&gt;Dynamic obstacles avoidance system&lt;/font&gt;" style="text;html=1;align=center;verticalAlign=middle;whiteSpace=wrap;rounded=0;" vertex="1" parent="1">
          <mxGeometry x="3078.6600000000003" y="160" width="267.89" height="40" as="geometry" />
        </mxCell>
        <mxCell id="gCTk7gotpWlxbPK6NRCB-66" value="" style="group;fillColor=#75FF83;fillStyle=solid;fontColor=#ffffff;strokeColor=#3700CC;gradientColor=none;" connectable="0" vertex="1" parent="1">
          <mxGeometry x="2650" y="1370" width="170" height="120" as="geometry" />
        </mxCell>
        <mxCell id="gCTk7gotpWlxbPK6NRCB-67" value="&lt;div&gt;&lt;br&gt;&lt;/div&gt;" style="rounded=0;whiteSpace=wrap;html=1;fontStyle=1" vertex="1" parent="gCTk7gotpWlxbPK6NRCB-66">
          <mxGeometry width="170" height="120" as="geometry" />
        </mxCell>
        <mxCell id="gCTk7gotpWlxbPK6NRCB-68" value="&lt;font style=&quot;font-size: 20px;&quot;&gt;SLAM Toolbox&lt;/font&gt;" style="text;html=1;align=center;verticalAlign=middle;whiteSpace=wrap;rounded=0;" vertex="1" parent="gCTk7gotpWlxbPK6NRCB-66">
          <mxGeometry x="55" y="45" width="60" height="30" as="geometry" />
        </mxCell>
        <mxCell id="gCTk7gotpWlxbPK6NRCB-69" value="" style="group" connectable="0" vertex="1" parent="1">
          <mxGeometry x="1820" y="1525" width="411.74" height="300" as="geometry" />
        </mxCell>
        <mxCell id="gCTk7gotpWlxbPK6NRCB-70" value="" style="rounded=0;whiteSpace=wrap;html=1;movable=1;resizable=1;rotatable=1;deletable=1;editable=1;locked=0;connectable=1;container=0;" vertex="1" parent="gCTk7gotpWlxbPK6NRCB-69">
          <mxGeometry y="50" width="411.74" height="250" as="geometry" />
        </mxCell>
        <mxCell id="gCTk7gotpWlxbPK6NRCB-71" value="&lt;span style=&quot;font-size: 20px; font-weight: normal;&quot;&gt;Mobile robot&lt;/span&gt;" style="text;html=1;align=center;verticalAlign=middle;whiteSpace=wrap;rounded=0;movable=1;resizable=1;rotatable=1;deletable=1;editable=1;locked=0;connectable=1;fontStyle=1" vertex="1" parent="gCTk7gotpWlxbPK6NRCB-69">
          <mxGeometry x="115.87000000000012" y="40" width="180" height="90" as="geometry" />
        </mxCell>
        <mxCell id="gCTk7gotpWlxbPK6NRCB-72" value="LIDAR" style="rounded=0;whiteSpace=wrap;html=1;movable=1;resizable=1;rotatable=1;deletable=1;editable=1;locked=0;connectable=1;fontStyle=1;container=0;" vertex="1" parent="gCTk7gotpWlxbPK6NRCB-69">
          <mxGeometry x="7.609130434782628" y="227.8947368421052" width="125.21739130434783" height="61.578947368421055" as="geometry" />
        </mxCell>
        <mxCell id="gCTk7gotpWlxbPK6NRCB-73" value="IMU" style="rounded=0;whiteSpace=wrap;html=1;movable=1;resizable=1;rotatable=1;deletable=1;editable=1;locked=0;connectable=1;fontStyle=1;container=0;" vertex="1" parent="gCTk7gotpWlxbPK6NRCB-69">
          <mxGeometry x="143.26130434782613" y="227.8947368421052" width="125.21739130434783" height="61.578947368421055" as="geometry" />
        </mxCell>
        <mxCell id="gCTk7gotpWlxbPK6NRCB-74" value="Bumper sensor" style="rounded=0;whiteSpace=wrap;html=1;movable=1;resizable=1;rotatable=1;deletable=1;editable=1;locked=0;connectable=1;fontStyle=1;container=0;" vertex="1" parent="gCTk7gotpWlxbPK6NRCB-69">
          <mxGeometry x="278.9134782608696" y="227.8947368421052" width="125.21739130434783" height="61.578947368421055" as="geometry" />
        </mxCell>
        <mxCell id="gCTk7gotpWlxbPK6NRCB-75" value="Controller" style="rounded=0;whiteSpace=wrap;html=1;movable=1;resizable=1;rotatable=1;deletable=1;editable=1;locked=0;connectable=1;fontStyle=1;container=0;" vertex="1" parent="gCTk7gotpWlxbPK6NRCB-69">
          <mxGeometry x="75.95695652173913" y="156.0526315789474" width="125.21739130434783" height="61.578947368421055" as="geometry" />
        </mxCell>
        <mxCell id="gCTk7gotpWlxbPK6NRCB-76" value="Robot state publisher" style="rounded=0;whiteSpace=wrap;html=1;fontStyle=1;container=0;" vertex="1" parent="gCTk7gotpWlxbPK6NRCB-69">
          <mxGeometry x="210.56565217391312" y="156.0526315789474" width="125.21739130434783" height="61.578947368421055" as="geometry" />
        </mxCell>
        <mxCell id="gCTk7gotpWlxbPK6NRCB-77" value="" style="group" connectable="0" vertex="1" parent="1">
          <mxGeometry x="2624" y="1575" width="300" height="255" as="geometry" />
        </mxCell>
        <mxCell id="gCTk7gotpWlxbPK6NRCB-78" value="" style="rounded=0;whiteSpace=wrap;html=1;container=0;" vertex="1" parent="gCTk7gotpWlxbPK6NRCB-77">
          <mxGeometry width="300" height="255" as="geometry" />
        </mxCell>
        <mxCell id="gCTk7gotpWlxbPK6NRCB-79" value="&lt;span style=&quot;font-weight: normal;&quot;&gt;Navigation2&lt;/span&gt;" style="text;html=1;align=center;verticalAlign=middle;whiteSpace=wrap;rounded=0;fontSize=20;fontStyle=1;container=0;" vertex="1" parent="gCTk7gotpWlxbPK6NRCB-77">
          <mxGeometry x="104.70684039087973" y="9.997948717948702" width="90.58631921824103" height="34.871794871794876" as="geometry" />
        </mxCell>
        <mxCell id="gCTk7gotpWlxbPK6NRCB-80" value="Planner server" style="rounded=0;whiteSpace=wrap;html=1;movable=1;resizable=1;rotatable=1;deletable=1;editable=1;locked=0;connectable=1;fontStyle=1;container=0;" vertex="1" parent="gCTk7gotpWlxbPK6NRCB-77">
          <mxGeometry x="12.386956521739194" y="165.00263157894744" width="125.21739130434783" height="61.578947368421055" as="geometry" />
        </mxCell>
        <mxCell id="gCTk7gotpWlxbPK6NRCB-81" value="Controller server" style="rounded=0;whiteSpace=wrap;html=1;movable=1;resizable=1;rotatable=1;deletable=1;editable=1;locked=0;connectable=1;fontStyle=1;container=0;" vertex="1" parent="gCTk7gotpWlxbPK6NRCB-77">
          <mxGeometry x="162.3869565217392" y="165.00263157894733" width="125.21739130434783" height="61.578947368421055" as="geometry" />
        </mxCell>
        <mxCell id="gCTk7gotpWlxbPK6NRCB-82" value="BT Navigator" style="rounded=0;whiteSpace=wrap;html=1;movable=1;resizable=1;rotatable=1;deletable=1;editable=1;locked=0;connectable=1;fontStyle=1;container=0;" vertex="1" parent="gCTk7gotpWlxbPK6NRCB-77">
          <mxGeometry x="87.3869565217392" y="85.00263157894733" width="125.21739130434783" height="61.578947368421055" as="geometry" />
        </mxCell>
        <mxCell id="gCTk7gotpWlxbPK6NRCB-83" value="" style="group" connectable="0" vertex="1" parent="1">
          <mxGeometry x="2350" y="1375" width="170" height="120" as="geometry" />
        </mxCell>
        <mxCell id="gCTk7gotpWlxbPK6NRCB-84" value="&lt;div&gt;&lt;br&gt;&lt;/div&gt;" style="rounded=0;whiteSpace=wrap;html=1;fontStyle=1" vertex="1" parent="gCTk7gotpWlxbPK6NRCB-83">
          <mxGeometry width="170" height="120" as="geometry" />
        </mxCell>
        <mxCell id="gCTk7gotpWlxbPK6NRCB-85" value="&lt;font style=&quot;font-size: 20px;&quot;&gt;Map server&lt;/font&gt;" style="text;html=1;align=center;verticalAlign=middle;whiteSpace=wrap;rounded=0;" vertex="1" parent="gCTk7gotpWlxbPK6NRCB-83">
          <mxGeometry x="55" y="45" width="60" height="30" as="geometry" />
        </mxCell>
        <mxCell id="gCTk7gotpWlxbPK6NRCB-86" value="" style="group" connectable="0" vertex="1" parent="1">
          <mxGeometry x="2350" y="1635" width="170" height="120" as="geometry" />
        </mxCell>
        <mxCell id="gCTk7gotpWlxbPK6NRCB-87" value="&lt;div&gt;&lt;br&gt;&lt;/div&gt;" style="rounded=0;whiteSpace=wrap;html=1;fontStyle=1" vertex="1" parent="gCTk7gotpWlxbPK6NRCB-86">
          <mxGeometry width="170" height="120" as="geometry" />
        </mxCell>
        <mxCell id="gCTk7gotpWlxbPK6NRCB-88" value="&lt;font style=&quot;font-size: 20px;&quot;&gt;AMCL&lt;/font&gt;" style="text;html=1;align=center;verticalAlign=middle;whiteSpace=wrap;rounded=0;" vertex="1" parent="gCTk7gotpWlxbPK6NRCB-86">
          <mxGeometry x="55" y="45" width="60" height="30" as="geometry" />
        </mxCell>
        <mxCell id="gCTk7gotpWlxbPK6NRCB-89" style="edgeStyle=orthogonalEdgeStyle;rounded=0;orthogonalLoop=1;jettySize=auto;html=1;exitX=1;exitY=0.5;exitDx=0;exitDy=0;entryX=-0.005;entryY=0.547;entryDx=0;entryDy=0;entryPerimeter=0;" edge="1" parent="1" source="gCTk7gotpWlxbPK6NRCB-70" target="gCTk7gotpWlxbPK6NRCB-87">
          <mxGeometry relative="1" as="geometry" />
        </mxCell>
        <mxCell id="gCTk7gotpWlxbPK6NRCB-90" value="Sensor&lt;br&gt;Data" style="edgeLabel;html=1;align=center;verticalAlign=middle;resizable=0;points=[];" connectable="0" vertex="1" parent="gCTk7gotpWlxbPK6NRCB-89">
          <mxGeometry x="0.2201" relative="1" as="geometry">
            <mxPoint x="-13" y="-1" as="offset" />
          </mxGeometry>
        </mxCell>
        <mxCell id="gCTk7gotpWlxbPK6NRCB-91" style="edgeStyle=orthogonalEdgeStyle;rounded=0;orthogonalLoop=1;jettySize=auto;html=1;exitX=0.5;exitY=1;exitDx=0;exitDy=0;entryX=0.5;entryY=0;entryDx=0;entryDy=0;" edge="1" parent="1" source="gCTk7gotpWlxbPK6NRCB-84" target="gCTk7gotpWlxbPK6NRCB-87">
          <mxGeometry relative="1" as="geometry" />
        </mxCell>
        <mxCell id="gCTk7gotpWlxbPK6NRCB-92" value="Map" style="edgeLabel;html=1;align=center;verticalAlign=middle;resizable=0;points=[];" connectable="0" vertex="1" parent="gCTk7gotpWlxbPK6NRCB-91">
          <mxGeometry x="-0.0934" y="-1" relative="1" as="geometry">
            <mxPoint x="1" y="-24" as="offset" />
          </mxGeometry>
        </mxCell>
        <mxCell id="gCTk7gotpWlxbPK6NRCB-93" style="edgeStyle=orthogonalEdgeStyle;rounded=0;orthogonalLoop=1;jettySize=auto;html=1;exitX=0.75;exitY=1;exitDx=0;exitDy=0;entryX=-0.002;entryY=0.126;entryDx=0;entryDy=0;entryPerimeter=0;" edge="1" parent="1" source="gCTk7gotpWlxbPK6NRCB-84" target="gCTk7gotpWlxbPK6NRCB-78">
          <mxGeometry relative="1" as="geometry" />
        </mxCell>
        <mxCell id="gCTk7gotpWlxbPK6NRCB-94" value="Map" style="edgeLabel;html=1;align=center;verticalAlign=middle;resizable=0;points=[];" connectable="0" vertex="1" parent="gCTk7gotpWlxbPK6NRCB-93">
          <mxGeometry x="-0.6975" y="1" relative="1" as="geometry">
            <mxPoint as="offset" />
          </mxGeometry>
        </mxCell>
        <mxCell id="gCTk7gotpWlxbPK6NRCB-95" style="edgeStyle=orthogonalEdgeStyle;rounded=0;orthogonalLoop=1;jettySize=auto;html=1;exitX=1;exitY=0.5;exitDx=0;exitDy=0;entryX=-0.002;entryY=0.468;entryDx=0;entryDy=0;entryPerimeter=0;" edge="1" parent="1" source="gCTk7gotpWlxbPK6NRCB-87" target="gCTk7gotpWlxbPK6NRCB-78">
          <mxGeometry relative="1" as="geometry" />
        </mxCell>
        <mxCell id="gCTk7gotpWlxbPK6NRCB-96" value="Pose" style="edgeLabel;html=1;align=center;verticalAlign=middle;resizable=0;points=[];" connectable="0" vertex="1" parent="gCTk7gotpWlxbPK6NRCB-95">
          <mxGeometry x="-0.0437" y="-1" relative="1" as="geometry">
            <mxPoint as="offset" />
          </mxGeometry>
        </mxCell>
        <mxCell id="gCTk7gotpWlxbPK6NRCB-106" style="edgeStyle=orthogonalEdgeStyle;rounded=0;orthogonalLoop=1;jettySize=auto;html=1;exitX=0;exitY=0.5;exitDx=0;exitDy=0;entryX=0.996;entryY=0.454;entryDx=0;entryDy=0;entryPerimeter=0;" edge="1" parent="1" source="gCTk7gotpWlxbPK6NRCB-67" target="gCTk7gotpWlxbPK6NRCB-84">
          <mxGeometry relative="1" as="geometry" />
        </mxCell>
        <mxCell id="gCTk7gotpWlxbPK6NRCB-107" value="Map" style="edgeLabel;html=1;align=center;verticalAlign=middle;resizable=0;points=[];" connectable="0" vertex="1" parent="gCTk7gotpWlxbPK6NRCB-106">
          <mxGeometry x="0.0972" y="2" relative="1" as="geometry">
            <mxPoint x="1" y="-1" as="offset" />
          </mxGeometry>
        </mxCell>
        <mxCell id="gCTk7gotpWlxbPK6NRCB-108" style="edgeStyle=orthogonalEdgeStyle;rounded=0;orthogonalLoop=1;jettySize=auto;html=1;exitX=0.5;exitY=1;exitDx=0;exitDy=0;entryX=0.5;entryY=0;entryDx=0;entryDy=0;" edge="1" parent="1" source="gCTk7gotpWlxbPK6NRCB-110" target="gCTk7gotpWlxbPK6NRCB-113">
          <mxGeometry relative="1" as="geometry" />
        </mxCell>
        <mxCell id="gCTk7gotpWlxbPK6NRCB-109" value="Detected blobs" style="edgeLabel;html=1;align=center;verticalAlign=middle;resizable=0;points=[];" connectable="0" vertex="1" parent="gCTk7gotpWlxbPK6NRCB-108">
          <mxGeometry x="-0.0109" y="1" relative="1" as="geometry">
            <mxPoint as="offset" />
          </mxGeometry>
        </mxCell>
        <mxCell id="gCTk7gotpWlxbPK6NRCB-110" value="Costmap conversion" style="rounded=0;whiteSpace=wrap;html=1;movable=1;resizable=1;rotatable=1;deletable=1;editable=1;locked=0;connectable=1;fontStyle=1;container=0;" vertex="1" parent="1">
          <mxGeometry x="3259.996956521739" y="1534.6726315789474" width="125.21739130434783" height="61.578947368421055" as="geometry" />
        </mxCell>
        <mxCell id="gCTk7gotpWlxbPK6NRCB-111" style="edgeStyle=orthogonalEdgeStyle;rounded=0;orthogonalLoop=1;jettySize=auto;html=1;exitX=0.5;exitY=1;exitDx=0;exitDy=0;entryX=0.5;entryY=0;entryDx=0;entryDy=0;" edge="1" parent="1" source="gCTk7gotpWlxbPK6NRCB-113" target="gCTk7gotpWlxbPK6NRCB-116">
          <mxGeometry relative="1" as="geometry" />
        </mxCell>
        <mxCell id="gCTk7gotpWlxbPK6NRCB-112" value="Tracked blobs" style="edgeLabel;html=1;align=center;verticalAlign=middle;resizable=0;points=[];" connectable="0" vertex="1" parent="gCTk7gotpWlxbPK6NRCB-111">
          <mxGeometry x="-0.054" y="1" relative="1" as="geometry">
            <mxPoint as="offset" />
          </mxGeometry>
        </mxCell>
        <mxCell id="gCTk7gotpWlxbPK6NRCB-113" value="Tracking and estimation" style="rounded=0;whiteSpace=wrap;html=1;movable=1;resizable=1;rotatable=1;deletable=1;editable=1;locked=0;connectable=1;fontStyle=1;container=0;" vertex="1" parent="1">
          <mxGeometry x="3259.996956521739" y="1661.9626315789474" width="125.21739130434783" height="61.578947368421055" as="geometry" />
        </mxCell>
        <mxCell id="gCTk7gotpWlxbPK6NRCB-114" style="edgeStyle=orthogonalEdgeStyle;rounded=0;orthogonalLoop=1;jettySize=auto;html=1;exitX=0;exitY=0.5;exitDx=0;exitDy=0;entryX=1;entryY=0.75;entryDx=0;entryDy=0;" edge="1" parent="1" source="gCTk7gotpWlxbPK6NRCB-116" target="gCTk7gotpWlxbPK6NRCB-78">
          <mxGeometry relative="1" as="geometry" />
        </mxCell>
        <mxCell id="gCTk7gotpWlxbPK6NRCB-115" value="Costmap&lt;div&gt;Layer&lt;/div&gt;" style="edgeLabel;html=1;align=center;verticalAlign=middle;resizable=0;points=[];" connectable="0" vertex="1" parent="gCTk7gotpWlxbPK6NRCB-114">
          <mxGeometry x="0.5789" y="2" relative="1" as="geometry">
            <mxPoint as="offset" />
          </mxGeometry>
        </mxCell>
        <mxCell id="gCTk7gotpWlxbPK6NRCB-116" value="Gredient layer creation" style="rounded=0;whiteSpace=wrap;html=1;movable=1;resizable=1;rotatable=1;deletable=1;editable=1;locked=0;connectable=1;fontStyle=1;container=0;" vertex="1" parent="1">
          <mxGeometry x="3259.996956521739" y="1793.7526315789473" width="125.21739130434783" height="61.578947368421055" as="geometry" />
        </mxCell>
        <mxCell id="gCTk7gotpWlxbPK6NRCB-117" style="edgeStyle=orthogonalEdgeStyle;rounded=0;orthogonalLoop=1;jettySize=auto;html=1;exitX=1;exitY=0.25;exitDx=0;exitDy=0;entryX=0;entryY=0.5;entryDx=0;entryDy=0;" edge="1" parent="1" source="gCTk7gotpWlxbPK6NRCB-78" target="gCTk7gotpWlxbPK6NRCB-110">
          <mxGeometry relative="1" as="geometry" />
        </mxCell>
        <mxCell id="gCTk7gotpWlxbPK6NRCB-118" value="Costmap" style="edgeLabel;html=1;align=center;verticalAlign=middle;resizable=0;points=[];" connectable="0" vertex="1" parent="gCTk7gotpWlxbPK6NRCB-117">
          <mxGeometry x="-0.57" y="-2" relative="1" as="geometry">
            <mxPoint as="offset" />
          </mxGeometry>
        </mxCell>
        <mxCell id="gCTk7gotpWlxbPK6NRCB-120" value="&lt;font style=&quot;font-size: 20px;&quot;&gt;Dynamic obstacles avoidance system&lt;/font&gt;" style="text;html=1;align=center;verticalAlign=middle;whiteSpace=wrap;rounded=0;" vertex="1" parent="1">
          <mxGeometry x="3188.6600000000003" y="1460" width="267.89" height="40" as="geometry" />
        </mxCell>
        <mxCell id="gCTk7gotpWlxbPK6NRCB-134" value="" style="group" connectable="0" vertex="1" parent="1">
          <mxGeometry x="2440" y="2070" width="230" height="210" as="geometry" />
        </mxCell>
        <mxCell id="gCTk7gotpWlxbPK6NRCB-139" value="" style="rounded=0;whiteSpace=wrap;html=1;" vertex="1" parent="gCTk7gotpWlxbPK6NRCB-134">
          <mxGeometry y="19.09090909090909" width="230.00000000000006" height="190.90909090909093" as="geometry" />
        </mxCell>
        <mxCell id="gCTk7gotpWlxbPK6NRCB-140" value="Costmap converter" style="text;html=1;align=center;verticalAlign=middle;whiteSpace=wrap;rounded=0;fontStyle=1" vertex="1" parent="gCTk7gotpWlxbPK6NRCB-134">
          <mxGeometry x="63.75" y="19.09" width="102.5" height="60" as="geometry" />
        </mxCell>
        <mxCell id="gCTk7gotpWlxbPK6NRCB-141" value="&lt;div&gt;class BackgroundSubtractor&lt;div&gt;class BlobDetector&lt;/div&gt;&lt;div&gt;class CostmapToDynamicObstacles&lt;br&gt;&lt;div&gt;class CostmapConversionNode&lt;br&gt;&lt;/div&gt;&lt;/div&gt;&lt;/div&gt;" style="text;html=1;align=left;verticalAlign=middle;whiteSpace=wrap;rounded=0;fontStyle=2;movable=1;resizable=1;rotatable=1;deletable=1;editable=1;locked=0;connectable=1;" vertex="1" parent="gCTk7gotpWlxbPK6NRCB-134">
          <mxGeometry x="11.761363636363638" y="69.99753692531723" width="206.47727272727278" height="130.62200956937798" as="geometry" />
        </mxCell>
        <mxCell id="gCTk7gotpWlxbPK6NRCB-145" style="edgeStyle=orthogonalEdgeStyle;rounded=0;orthogonalLoop=1;jettySize=auto;html=1;" edge="1" parent="1">
          <mxGeometry relative="1" as="geometry">
            <mxPoint x="2310" y="2220" as="sourcePoint" />
            <mxPoint x="2440" y="2220" as="targetPoint" />
          </mxGeometry>
        </mxCell>
        <mxCell id="gCTk7gotpWlxbPK6NRCB-146" value="/local_costmap" style="edgeLabel;html=1;align=center;verticalAlign=middle;resizable=0;points=[];" connectable="0" vertex="1" parent="gCTk7gotpWlxbPK6NRCB-145">
          <mxGeometry x="-0.0027" relative="1" as="geometry">
            <mxPoint as="offset" />
          </mxGeometry>
        </mxCell>
        <mxCell id="gCTk7gotpWlxbPK6NRCB-137" style="edgeStyle=orthogonalEdgeStyle;rounded=0;orthogonalLoop=1;jettySize=auto;html=1;" edge="1" parent="1">
          <mxGeometry relative="1" as="geometry">
            <mxPoint x="2310" y="2161.31" as="sourcePoint" />
            <mxPoint x="2440" y="2161.31" as="targetPoint" />
          </mxGeometry>
        </mxCell>
        <mxCell id="gCTk7gotpWlxbPK6NRCB-138" value="/global_costmap" style="edgeLabel;html=1;align=center;verticalAlign=middle;resizable=0;points=[];" connectable="0" vertex="1" parent="gCTk7gotpWlxbPK6NRCB-137">
          <mxGeometry x="-0.0027" relative="1" as="geometry">
            <mxPoint as="offset" />
          </mxGeometry>
        </mxCell>
        <mxCell id="gCTk7gotpWlxbPK6NRCB-135" style="edgeStyle=orthogonalEdgeStyle;rounded=0;orthogonalLoop=1;jettySize=auto;html=1;" edge="1" parent="1">
          <mxGeometry relative="1" as="geometry">
            <mxPoint x="2820" y="2184.055454545455" as="targetPoint" />
            <mxPoint x="2670" y="2184.51" as="sourcePoint" />
          </mxGeometry>
        </mxCell>
        <mxCell id="gCTk7gotpWlxbPK6NRCB-136" value="/detection" style="edgeLabel;html=1;align=center;verticalAlign=middle;resizable=0;points=[];" connectable="0" vertex="1" parent="gCTk7gotpWlxbPK6NRCB-135">
          <mxGeometry x="-0.1044" y="-1" relative="1" as="geometry">
            <mxPoint as="offset" />
          </mxGeometry>
        </mxCell>
        <mxCell id="gCTk7gotpWlxbPK6NRCB-147" value="" style="group" connectable="0" vertex="1" parent="1">
          <mxGeometry x="3110" y="2060" width="230" height="210" as="geometry" />
        </mxCell>
        <mxCell id="gCTk7gotpWlxbPK6NRCB-148" value="" style="rounded=0;whiteSpace=wrap;html=1;" vertex="1" parent="gCTk7gotpWlxbPK6NRCB-147">
          <mxGeometry y="30" width="190" height="110" as="geometry" />
        </mxCell>
        <mxCell id="gCTk7gotpWlxbPK6NRCB-149" value="Tracking and estimation" style="text;html=1;align=center;verticalAlign=middle;whiteSpace=wrap;rounded=0;fontStyle=1" vertex="1" parent="gCTk7gotpWlxbPK6NRCB-147">
          <mxGeometry x="27.32" y="30" width="137.13" height="40" as="geometry" />
        </mxCell>
        <mxCell id="gCTk7gotpWlxbPK6NRCB-150" value="class ObstacleClass&lt;div&gt;class KFHungarianTracker&lt;/div&gt;" style="text;html=1;align=left;verticalAlign=middle;whiteSpace=wrap;rounded=0;fontStyle=2;movable=1;resizable=1;rotatable=1;deletable=1;editable=1;locked=0;connectable=1;" vertex="1" parent="gCTk7gotpWlxbPK6NRCB-147">
          <mxGeometry x="16.21" y="80" width="148.24" height="50" as="geometry" />
        </mxCell>
        <mxCell id="gCTk7gotpWlxbPK6NRCB-153" style="edgeStyle=orthogonalEdgeStyle;rounded=0;orthogonalLoop=1;jettySize=auto;html=1;" edge="1" parent="1">
          <mxGeometry relative="1" as="geometry">
            <mxPoint x="2970" y="2140.3" as="sourcePoint" />
            <mxPoint x="3110" y="2140" as="targetPoint" />
          </mxGeometry>
        </mxCell>
        <mxCell id="gCTk7gotpWlxbPK6NRCB-154" value="/detection" style="edgeLabel;html=1;align=center;verticalAlign=middle;resizable=0;points=[];" connectable="0" vertex="1" parent="gCTk7gotpWlxbPK6NRCB-153">
          <mxGeometry x="-0.0027" relative="1" as="geometry">
            <mxPoint x="-2" y="-1" as="offset" />
          </mxGeometry>
        </mxCell>
        <mxCell id="gCTk7gotpWlxbPK6NRCB-155" style="edgeStyle=orthogonalEdgeStyle;rounded=0;orthogonalLoop=1;jettySize=auto;html=1;" edge="1" parent="1">
          <mxGeometry relative="1" as="geometry">
            <mxPoint x="3480" y="2140" as="targetPoint" />
            <mxPoint x="3300" y="2140.51" as="sourcePoint" />
          </mxGeometry>
        </mxCell>
        <mxCell id="gCTk7gotpWlxbPK6NRCB-156" value="/local_costmap/tracking" style="edgeLabel;html=1;align=center;verticalAlign=middle;resizable=0;points=[];" connectable="0" vertex="1" parent="gCTk7gotpWlxbPK6NRCB-155">
          <mxGeometry x="-0.1044" y="-1" relative="1" as="geometry">
            <mxPoint x="9" y="-1" as="offset" />
          </mxGeometry>
        </mxCell>
        <mxCell id="gCTk7gotpWlxbPK6NRCB-157" value="" style="group;verticalAlign=top;" connectable="0" vertex="1" parent="1">
          <mxGeometry x="3000" y="2350" width="360" height="150" as="geometry" />
        </mxCell>
        <mxCell id="gCTk7gotpWlxbPK6NRCB-158" value="" style="rounded=0;whiteSpace=wrap;html=1;" vertex="1" parent="gCTk7gotpWlxbPK6NRCB-157">
          <mxGeometry width="360" height="150" as="geometry" />
        </mxCell>
        <mxCell id="gCTk7gotpWlxbPK6NRCB-159" value="&lt;b&gt;gradient_costmap_plugin&lt;/b&gt;" style="text;html=1;align=center;verticalAlign=middle;whiteSpace=wrap;rounded=0;" vertex="1" parent="gCTk7gotpWlxbPK6NRCB-157">
          <mxGeometry x="150" y="7.5" width="60" height="15" as="geometry" />
        </mxCell>
        <mxCell id="gCTk7gotpWlxbPK6NRCB-160" value="&lt;div&gt;Custom plugin. Process information about dynamic obstacles to compute Gaussian costs and updates the master costmap&lt;/div&gt;&lt;div&gt;&lt;br&gt;&lt;/div&gt;class GradientLayer - provides a Gaussian cost assignment around dynamic obstacle." style="text;html=1;align=left;verticalAlign=top;whiteSpace=wrap;rounded=0;" vertex="1" parent="gCTk7gotpWlxbPK6NRCB-157">
          <mxGeometry x="20" y="35" width="320" height="105" as="geometry" />
        </mxCell>
        <mxCell id="gCTk7gotpWlxbPK6NRCB-162" value="" style="rounded=0;whiteSpace=wrap;html=1;" vertex="1" parent="1">
          <mxGeometry x="2512.53" y="2440" width="187.47" height="80" as="geometry" />
        </mxCell>
        <mxCell id="gCTk7gotpWlxbPK6NRCB-163" value="Gradient layer creation" style="text;html=1;align=center;verticalAlign=middle;whiteSpace=wrap;rounded=0;fontStyle=1" vertex="1" parent="1">
          <mxGeometry x="2539.8500000000004" y="2440" width="137.13" height="40" as="geometry" />
        </mxCell>
        <mxCell id="gCTk7gotpWlxbPK6NRCB-164" value="class GradientLayer" style="text;html=1;align=left;verticalAlign=middle;whiteSpace=wrap;rounded=0;fontStyle=2;movable=1;resizable=1;rotatable=1;deletable=1;editable=1;locked=0;connectable=1;" vertex="1" parent="1">
          <mxGeometry x="2520" y="2480" width="163.03" height="40" as="geometry" />
        </mxCell>
        <mxCell id="gCTk7gotpWlxbPK6NRCB-166" style="edgeStyle=orthogonalEdgeStyle;rounded=0;orthogonalLoop=1;jettySize=auto;html=1;" edge="1" parent="1">
          <mxGeometry relative="1" as="geometry">
            <mxPoint x="2937.47" y="2480" as="targetPoint" />
            <mxPoint x="2699.9999999999995" y="2480.51" as="sourcePoint" />
          </mxGeometry>
        </mxCell>
        <mxCell id="gCTk7gotpWlxbPK6NRCB-167" value="GradientLayer for local_costmap" style="edgeLabel;html=1;align=center;verticalAlign=middle;resizable=0;points=[];" connectable="0" vertex="1" parent="gCTk7gotpWlxbPK6NRCB-166">
          <mxGeometry x="-0.1044" y="-1" relative="1" as="geometry">
            <mxPoint x="9" y="-1" as="offset" />
          </mxGeometry>
        </mxCell>
        <mxCell id="gCTk7gotpWlxbPK6NRCB-169" style="edgeStyle=orthogonalEdgeStyle;rounded=0;orthogonalLoop=1;jettySize=auto;html=1;" edge="1" parent="1">
          <mxGeometry relative="1" as="geometry">
            <mxPoint x="2512.53" y="2480" as="targetPoint" />
            <mxPoint x="2332.53" y="2480.51" as="sourcePoint" />
          </mxGeometry>
        </mxCell>
        <mxCell id="gCTk7gotpWlxbPK6NRCB-170" value="/local_costmap/tracking" style="edgeLabel;html=1;align=center;verticalAlign=middle;resizable=0;points=[];" connectable="0" vertex="1" parent="gCTk7gotpWlxbPK6NRCB-169">
          <mxGeometry x="-0.1044" y="-1" relative="1" as="geometry">
            <mxPoint x="9" y="-1" as="offset" />
          </mxGeometry>
        </mxCell>
      </root>
    </mxGraphModel>
  </diagram>
</mxfile>
